<?xml version="1.0" encoding="UTF-8"?>
<svg id="Layer_1" data-name="Layer 1" xmlns="http://www.w3.org/2000/svg" viewBox="0 0 3080.313 797.004">
  <defs>
    <style>
      .cls-1, .cls-2 {
        fill-rule: evenodd;
      }

      .cls-1, .cls-2, .cls-3 {
        stroke-width: 0px;
      }

      .cls-1, .cls-3 {
        fill: #323232;
      }

      .cls-2 {
        fill: #ff7423;
      }
    </style>
  </defs>
  <g>
    <path class="cls-1" d="M1454.812,479.91v268.438c0,25.164,18.457,43.621,45.301,43.621,25.164,0,45.301-18.457,45.301-43.621v-268.438h56.203c20.973,0,37.75-16.781,37.75-37.75s-16.777-37.75-37.75-37.75h-56.203v-52.011c0-36.911,23.484-62.914,69.625-62.914,21.809,0,39.426-17.618,39.426-39.43s-17.617-39.426-39.426-39.426c-108.215,0-160.227,70.465-160.227,148.481v45.3h-17.613c-20.972,0-37.75,16.778-37.75,37.75s16.778,37.75,37.75,37.75h17.613ZM1191.074,479.91v268.438c0,25.164,18.453,43.621,45.297,43.621,25.168,0,45.301-18.457,45.301-43.621v-268.438h56.203c20.973,0,37.75-16.781,37.75-37.75s-16.777-37.75-37.75-37.75h-56.203v-52.011c0-36.911,23.488-62.914,69.625-62.914,21.812,0,39.43-17.618,39.43-39.43s-17.618-39.426-39.43-39.426c-108.215,0-160.223,70.465-160.223,148.481v45.3h-17.617c-20.973,0-37.75,16.778-37.75,37.75s16.777,37.75,37.75,37.75h17.617ZM2818.652,521.012c72.141,0,115.762,32.719,115.762,95.633,0,63.754-46.977,95.632-115.762,95.632s-115.765-31.878-115.765-95.632c0-62.914,43.621-95.633,115.765-95.633ZM2818.652,292.84c57.043,0,90.598,25.164,90.598,71.305,0,48.652-35.234,72.98-90.598,72.98s-90.597-24.328-90.597-72.98c0-46.141,33.554-71.305,90.597-71.305ZM2818.652,797.004c135.059,0,211.395-61.238,211.395-180.359,0-58.723-27.684-108.215-94.793-140.094,36.074-19.293,67.949-59.559,67.949-112.406,0-100.668-67.949-155.192-184.551-155.192s-184.554,54.524-184.554,155.192c0,52.847,31.879,93.113,67.949,112.406-67.11,31.879-94.793,81.371-94.793,140.094,0,119.121,76.34,180.359,211.398,180.359ZM2433.023,344.848v399.305c0,26.003,21.809,47.816,47.813,47.816s47.816-21.813,47.816-47.816v-482.352c0-26.004-21.808-47.816-47.816-47.816-12.582,0-20.129,4.195-29.359,10.066l-120.797,78.016c-11.743,7.55-20.133,21.812-20.133,38.589,0,25.164,20.972,46.137,46.137,46.137,10.906,0,20.132-3.355,27.683-9.226l48.656-32.719ZM2160.641,442.996c0-25.164-20.133-45.297-45.301-45.297s-45.297,20.133-45.297,45.297v303.672c0,25.168,20.133,45.301,45.297,45.301s45.301-20.133,45.301-45.301v-174.484c0-56.203,32.714-93.114,90.597-93.114,23.489,0,42.781-19.296,42.781-42.785s-19.292-42.781-42.781-42.781c-35.23,0-74.66,20.973-90.597,53.688v-4.196ZM1848.832,469.84c54.527,0,78.016,40.27,78.016,81.371h-166.098c4.195-53.687,39.426-81.371,88.082-81.371ZM1667.637,593.156c0,140.09,72.14,203.008,188.746,203.008,76.336,0,120.797-32.715,135.058-46.14,7.547-6.711,14.262-17.614,14.262-31.036,0-21.812-17.617-39.429-39.43-39.429-10.906,0-17.617,3.355-26.843,9.23-20.133,13.422-46.137,26.004-83.047,26.004-55.367,0-98.149-27.683-98.149-88.082h207.2c51.171,0,51.171-36.07,51.171-67.109,0-57.883-26.003-166.938-167.773-166.938-114.086,0-181.195,72.145-181.195,200.492ZM837.32,296.195c110.735,0,165.258,67.95,165.258,207.2,0,138.414-54.523,206.363-165.258,206.363s-165.258-67.949-165.258-206.363c0-139.25,54.528-207.2,165.258-207.2ZM837.32,797.004c169.453,0,265.922-97.312,265.922-293.609,0-198.813-96.469-294.442-265.922-294.442s-265.922,95.629-265.922,294.442c0,196.297,96.469,293.609,265.922,293.609Z"/>
    <path class="cls-2" d="M158.07,663.449v62.903c0,6.925,3.989,12.672,7.551,16.238,3.629,3.629,9.938,6.746,17.043,6.746h58.473c14.289,0,25.402-10.547,25.402-24.191v-60.489c0-5.578-2.398-11.261-4.961-14.394-10.004-11.848-19.316-9.399-33.23-9.395-10.504,0-18.508,1.371-29.575.657-13.246-.86-25.593-3.164-35.125,7.746-2.586,3.207-5.578,8.535-5.578,14.179Z"/>
    <path class="cls-2" d="M229.844,461.43c0,15.336-.016,30.676-.008,46.012.008,9.656,7.348,19.152,17.258,19.371,8.66.191,18.543-.465,27.508-.465h20.968c4.965,0,8.871-2.645,12-5.742,2.91-2.883,5.34-7.176,5.34-12.805v-45.164c0-11.09-8.265-19.356-19.355-19.356h-44.356c-10.699,0-19.355,8.192-19.355,18.149Z"/>
    <path class="cls-2" d="M350.008,413.442v38.711c0,10.152,6.972,18.144,16.535,18.144h42.336c9.117,0,16.535-7.797,16.535-16.934v-41.128c0-9.2-7.793-16.938-15.324-16.938h-44.356c-8.55,0-15.726,7.836-15.726,18.145Z"/>
    <path class="cls-2" d="M314.121,622.32c9.504,0,16.934-7.468,16.934-16.937v-38.309c0-5.695-2.368-9.484-5.332-12.406-3.059-3.019-7.27-4.527-13.215-4.527-7.645,0-36.223-.645-41.574.769-8.293,2.192-12.887,9.375-12.59,17.813.398,11.316,2.586,21.781,1.98,33.023-.527,9.766,5.512,19.617,15.934,20.403,8.695.656,20.906.171,29.965.171h7.898Z"/>
    <path class="cls-2" d="M343.152,326.746v35.082c0,6.153,3.196,11.215,8.047,13.727,1.52.785,3.731,1.598,6.067,1.598h37.503c7.59,0,14.11-6.836,14.11-15.325v-34.273c0-11.168-7.473-16.129-18.145-16.129h-29.433c-9.957,0-18.149,4.582-18.149,15.32Z"/>
    <path class="cls-2" d="M62.906,521.106v37.504c0,7.218,6.793,13.707,14.918,13.707h34.278c8.695,0,15.32-6.247,15.32-14.918v-35.485c0-7.375-6.75-14.113-12.903-14.113h-38.308c-6.766,0-13.305,6.652-13.305,13.305Z"/>
    <path class="cls-2" d="M327.426,496.914v31.047c0,6.613,5.871,12.098,12.5,12.098h29.437c3.703,0,7.266-1.801,9.184-3.719,2.566-2.566,3.719-5.789,3.719-9.59v-29.031c0-6.43-5.442-12.5-11.289-12.5h-31.856c-6.164,0-11.695,5.531-11.695,11.695Z"/>
    <path class="cls-2" d="M0,444.895v29.84c0,6.007,5.602,10.886,10.484,10.886h30.645c5.148,0,10.484-5.336,10.484-10.484v-30.645c0-2.902-1.777-5.644-3.308-7.175-1.797-1.797-4.102-3.309-7.578-3.309H10.887c-5.762,0-10.887,5.125-10.887,10.887Z"/>
    <path class="cls-2" d="M72.984,600.945v29.438c0,5.16,5.535,9.68,10.891,9.68h26.613c6.293,0,11.289-5,11.289-11.293v-26.614c0-7.902-6.258-11.289-14.113-11.289h-21.371c-7.313,0-13.309,3.891-13.309,10.078Z"/>
    <path class="cls-2" d="M424.203,300.942v20.964c0,6.711,3.883,11.696,10.484,11.696h23.793c5.715,0,10.079-4.637,10.079-9.274v-25.808c0-5.094-4.801-9.274-10.079-9.274h-24.597c-5.321,0-9.68,4.977-9.68,11.696Z"/>
    <path class="cls-2" d="M296.379,374.328v20.567c0,4.746,3.933,8.468,9.273,8.468h18.953c5.336,0,9.274-3.722,9.274-8.468v-20.567c0-4.551-3.918-8.468-8.469-8.468h-20.562c-4.551,0-8.469,3.917-8.469,8.468Z"/>
    <path class="cls-2" d="M420.172,359.008v19.352c0,4.546,3.258,8.875,7.66,8.875h22.18c4.402,0,7.66-4.329,7.66-8.875v-19.352c0-4.793-3.41-8.875-8.067-8.875h-21.371c-4.652,0-8.062,4.082-8.062,8.875Z"/>
    <path class="cls-2" d="M476.223,246.102v20.16c0,4.055,3.789,7.258,6.449,7.258h21.777c2.903,0,6.449-3.547,6.449-6.453v-21.774c0-3.105-3.839-6.449-7.257-6.449h-20.161c-3.668,0-7.257,3.547-7.257,7.258Z"/>
    <path class="cls-2" d="M166.133,509.414v19.356c0,4.875,4.254,7.257,9.273,7.257h14.113c5.02,0,9.278-2.382,9.278-7.257v-19.356c0-1.519-1.402-3.742-2.301-4.558-1.101-1-3.004-1.895-4.957-1.895h-18.148c-2.067,0-3.723.945-4.922,1.934-.946.777-2.336,2.949-2.336,4.519Z"/>
    <path class="cls-2" d="M18.953,521.914v14.516c0,5.676,3.418,8.062,8.871,8.062,24.821,0,21.371,1.321,21.371-24.593,0-7.95-14.8-6.051-20.566-6.051-5.602,0-9.676,1.676-9.676,8.066Z"/>
    <path class="cls-2" d="M236.551,585.86c6.109,0,10.886-4.801,10.886-10.887v-24.621c0-3.664-1.523-6.098-3.429-7.977-1.965-1.941-4.672-2.91-8.492-2.91-4.914,0-23.286-.414-26.723.496-5.332,1.406-8.285,6.024-8.094,11.445.258,7.278,1.66,14.004,1.274,21.231-.336,6.273,3.543,12.609,10.242,13.113,5.59.422,13.437.11,19.262.11h5.074Z"/>
    <path class="cls-2" d="M176.871,611.852c6.691,0,11.926-5.258,11.926-11.926v-26.977c0-4.011-1.668-6.675-3.754-8.738-2.152-2.121-5.121-3.187-9.309-3.187-5.379,0-25.507-.454-29.277.543-5.836,1.543-9.07,6.601-8.863,12.543.281,7.968,1.82,15.339,1.394,23.257-.371,6.875,3.883,13.813,11.219,14.368,6.125.46,14.723.117,21.105.117h5.559Z"/>
  </g>
  <g>
    <path class="cls-3" d="M2981.102,198.425c-54.706,0-99.213-44.507-99.213-99.213S2926.395,0,2981.102,0s99.212,44.507,99.212,99.213-44.506,99.213-99.212,99.213ZM2981.102,14.627c-46.642,0-84.587,37.945-84.587,84.586s37.945,84.586,84.587,84.586,84.585-37.945,84.585-84.586-37.945-84.586-84.585-84.586Z"/>
    <path class="cls-3" d="M2999.932,151.729l-16.655-30.009h-24.158v30.009h-23.707V46.696h45.614c27.458,0,43.063,13.204,43.063,36.461,0,16.205-6.902,27.909-19.656,33.91l22.357,34.661h-26.858ZM2959.119,101.913h21.907c13.054,0,20.556-6.002,20.556-18.006,0-11.704-7.502-17.555-20.556-17.555h-21.907v35.561Z"/>
  </g>
</svg>