<?xml version="1.0" encoding="utf-8"?>
<!-- Generator: Adobe Illustrator 26.2.1, SVG Export Plug-In . SVG Version: 6.00 Build 0)  -->
<svg version="1.1" id="Layer_1" xmlns="http://www.w3.org/2000/svg" xmlns:xlink="http://www.w3.org/1999/xlink" x="0px" y="0px"
	 viewBox="0 0 903.8 429.1" style="enable-background:new 0 0 903.8 429.1;" xml:space="preserve">
<style type="text/css">
	.st0{fill:#798CA5;}
	.st1{fill:none;stroke:#BEC8DA;stroke-width:4;stroke-miterlimit:10;}
	.st2{fill:#E5E5E5;}
</style>
<g>
	<g>
		<path class="st0" d="M759.1,415.5c-9.4-0.5-19.6-2.2-29.5-5.7c-6.5-2.3-13.2-4.4-19.7-6.7c-0.7-0.2-1.2-0.9-1.9-1.3
			c0.5-0.5,1-1.1,1.6-1.6c3.4-3,7-5.7,10.1-9c5.8-6.3,10.5-13.5,14.7-21c3.5-6.2,7-12.4,11.2-18.2c4.3-6,9.2-11.7,14.3-17.1
			c3.7-3.9,8.2-7.2,12.4-10.6c0.9-0.7,4.1-2,4.7-2.1c0.1,0.6-3,11.8-4.5,16.9c-2.4,8.2-4.5,16.4-7.2,24.5c-3.1,9-6.7,17.8-10.1,26.8
			c-0.2,0.6-0.3,1.2-0.5,1.8c0.7,0.1,1.4,0.4,2.1,0.3c8.3-1.4,16.6-2.9,24.9-4.5c8.8-1.7,17.7-3.3,26.5-5.3c9.6-2.2,19-4.9,28.6-7.3
			c0.8-0.2,2.1-0.1,2.5,0.4c0.5,0.7,0.7,2,0.3,2.8c-4.4,10-11,18.1-20.4,23.9c-8.6,5.4-18.1,8.2-28.1,9.9
			C780.8,414,770.6,415.3,759.1,415.5z"/>
		<path class="st0" d="M812.1,324c-0.1,5.3-1.6,12-2,17.3c-0.2,2.3,0.3,2.7,2.5,1.7c4.7-2.1,9.5-4.1,14.1-6.5
			c8.1-4.2,16.4-8.3,24.2-13.1c7.3-4.4,14.1-9.4,21-14.3c2.8-2,8.9-7.3,9.5-7.5c0.2,0.5-0.7,17.5-4.9,24.4
			c-3.3,5.4-7.5,10.5-11.8,15.2c-3.7,4.1-8,7.7-12.4,11.1c-6.2,4.9-13.1,8.7-20.4,11.9c-6.7,2.9-13.6,5.3-20.8,6.6
			c-3,0.5-6,0.9-9,1.2c-6.4,0.7-12.8,1.4-19.2,2.1c-1.2,0.1-2.5,0.2-3.7,0.1c-0.7-0.1-1.1-0.4-0.8-1.7c1.9-7,3.8-14,5.4-21.1
			c1.2-5.2,2.1-10.4,3.1-15.6c1.4-7.2,2.8-14.4,4.4-21.5c2.1-9.7,3.8-19.6,8.4-28.7c2.1-4.3,4.9-8.1,8.4-11.4c0.5-0.4,1.3-0.6,2-0.7
			C810.4,273.7,812.3,315.8,812.1,324z"/>
		<path class="st0" d="M847.7,280.9c0.6-0.4,1-0.7,1.3-1c5.7-5.3,11.6-10.5,17.2-16c5.6-5.5,11-11.2,16.2-17
			c4.8-5.3,9.2-10.8,13.8-16.2c1.4-1.6,5.1-5.9,5.6-6.3c0.3,0.6,6.8,15.7-6,41.2c-3.7,6.6-8.3,12.7-13.1,18.6
			c-6.7,8.2-14.7,14.7-23,21.1c-7.2,5.6-15,10.3-23.1,14.5c-2.2,1.1-4.4,2.1-6.7,3c-2,0.9-2.5,0.5-2.4-1.7c0.2-5.5,0.6-11,0.6-16.5
			c0.1-9.9-0.9-19.7-2.1-29.5c-1.1-9-1.8-18-1.8-27.1c0-8,0.9-16,4-23.5c0.9-2.1,4-7.1,4.7-7.6c0.4,0.6,4.3,22.3,7.3,29.1
			c2.1,9.4,4.1,18.8,6.1,28.2C846.9,276.3,847.2,278.4,847.7,280.9z"/>
		<path class="st0" d="M855.1,257c-1.1-6.2-1.9-11.9-3.1-17.5c-0.8-3.7-1.9-7.3-3.1-10.9c-3.1-8.8-14.3-39.7-16.6-46.4
			c-1.9-5.7-1-19.2-0.1-19.4c1-0.3,14.9,15.7,17.8,20.6c3.2,5.4,5.8,11.1,8.5,16.8c1.7,3.5,3,7.2,4.5,10.9c0.6,1.5,0.9,3,1.6,5.2
			c1.6-3.3,3.1-6,4.3-8.8c3.2-6.9,7.5-13.1,11.8-19.3c5-7.2,9-15.1,12.5-23.2c1.2-2.7,5-9.4,5.8-9.5c0.4-0.1,5.8,16.4,2,37.1
			c-1.5,8.5-3.6,16.9-8.7,24.1c-4.4,6.2-9.2,12.1-14.3,17.8c-5.6,6.2-11.7,11.9-17.6,17.9c-1.1,1.1-2,2.4-3.1,3.5
			C856.6,256.2,855.8,256.5,855.1,257z"/>
		<path class="st0" d="M876.5,79.5c1.6-0.8,15.7,21.5,15.9,47.3c0.1,18.7-24.3,61.8-25.1,62.9c-1.8-2.9-3.4-5.5-5-8.2
			c-3.9-6.5-7.5-13.2-11.8-19.3c-4.6-6.5-10.1-12.4-15-18.7c-4.2-5.4-7-11.7-9.2-18.2c-1.5-4.6-2.7-9.4-3.9-14.1
			c-0.3-1-0.2-2-0.3-3.7c1.1,0.5,2,0.6,2.6,1.1c8.7,7.8,17.5,15.6,26.1,23.5c3.8,3.5,7.3,7.2,10.9,10.9c1.1,1.1,1.9,2.4,3,3.9
			C870.9,124.6,876.4,102.5,876.5,79.5z"/>
		<path class="st0" d="M840.8,78.4c0.2-0.4,0.4-0.6,0.4-0.9c0.2-7.3,0.3-14.7,0.4-22c0.1-9.9-2.4-19.4-5.4-28.7
			c-1.4-4.2-3.1-8.3-4.7-12.5c2.8-0.9,24.9,10.3,31.8,42.6c4.4,20.3-4,61.9-4.4,63.5c-2.8-2.2-5.3-4.2-7.8-6.1
			c-6-4.8-12.1-9.5-18.1-14.3c-5.7-4.5-11.3-9-17-13.6c-2.3-1.9-4.6-3.7-6.6-5.8c-4.2-4.4-6-9.9-6.7-15.8c-0.2-1.9-0.1-7.7,0.4-8
			c0.5-0.3,6.6,3.7,8.9,5c4.1,2.4,9.5,4.5,13.8,6.4c5.5,2.5,9.3,5.8,13.9,9.7C840,78.1,840.4,78.2,840.8,78.4z"/>
		<path class="st0" d="M831,59.2c-31.3-5.7-49.6-58.8-49.4-59.1c0.3-0.4,12.2,0.7,21.4,6.9C829.9,25,831.4,57.8,831,59.2z"/>
	</g>
	<g>
		<path class="st0" d="M144.6,415.5c9.4-0.5,19.6-2.2,29.5-5.7c6.5-2.3,13.2-4.4,19.7-6.7c0.7-0.2,1.2-0.9,1.9-1.3
			c-0.5-0.5-1-1.1-1.6-1.6c-3.4-3-7-5.7-10.1-9c-5.8-6.3-10.5-13.5-14.7-21c-3.5-6.2-7-12.4-11.2-18.2c-4.3-6-9.2-11.7-14.3-17.1
			c-3.7-3.9-8.2-7.2-12.4-10.6c-0.9-0.7-4.1-2-4.7-2.1c-0.1,0.6,3,11.8,4.5,16.9c2.4,8.2,4.5,16.4,7.2,24.5
			c3.1,9,6.7,17.8,10.1,26.8c0.2,0.6,0.3,1.2,0.5,1.8c-0.7,0.1-1.4,0.4-2.1,0.3c-8.3-1.4-16.6-2.9-24.9-4.5
			c-8.8-1.7-17.7-3.3-26.5-5.3c-9.6-2.2-19-4.9-28.6-7.3c-0.8-0.2-2.1-0.1-2.5,0.4c-0.5,0.7-0.7,2-0.3,2.8c4.4,10,11,18.1,20.4,23.9
			c8.6,5.4,18.1,8.2,28.1,9.9C123,414,133.2,415.3,144.6,415.5z"/>
		<path class="st0" d="M91.7,324c0.1,5.3,1.6,12,2,17.3c0.2,2.3-0.3,2.7-2.5,1.7c-4.7-2.1-9.5-4.1-14.1-6.5
			c-8.1-4.2-16.4-8.3-24.2-13.1c-7.3-4.4-14.1-9.4-21-14.3c-2.8-2-8.9-7.3-9.5-7.5c-0.2,0.5,0.7,17.5,4.9,24.4
			c3.3,5.4,7.5,10.5,11.8,15.2c3.7,4.1,8,7.7,12.4,11.1c6.2,4.9,13.1,8.7,20.4,11.9c6.7,2.9,13.6,5.3,20.8,6.6c3,0.5,6,0.9,9,1.2
			c6.4,0.7,12.8,1.4,19.2,2.1c1.2,0.1,2.5,0.2,3.7,0.1c0.7-0.1,1.1-0.4,0.8-1.7c-1.9-7-3.8-14-5.4-21.1c-1.2-5.2-2.1-10.4-3.1-15.6
			c-1.4-7.2-2.8-14.4-4.4-21.5c-2.1-9.7-3.8-19.6-8.4-28.7c-2.1-4.3-4.9-8.1-8.4-11.4c-0.5-0.4-1.3-0.6-2-0.7
			C93.4,273.7,91.4,315.8,91.7,324z"/>
		<path class="st0" d="M56.1,280.9c-0.6-0.4-1-0.7-1.3-1c-5.7-5.3-11.6-10.5-17.2-16c-5.6-5.5-11-11.2-16.2-17
			c-4.8-5.3-9.2-10.8-13.8-16.2c-1.4-1.6-5.1-5.9-5.6-6.3c-0.3,0.6-6.8,15.7,6,41.2c3.7,6.6,8.3,12.7,13.1,18.6
			c6.7,8.2,14.7,14.7,23,21.1c7.2,5.6,15,10.3,23.1,14.5c2.2,1.1,4.4,2.1,6.7,3c2,0.9,2.5,0.5,2.4-1.7c-0.2-5.5-0.6-11-0.6-16.5
			c-0.1-9.9,0.9-19.7,2.1-29.5c1.1-9,1.8-18,1.8-27.1c0-8-0.9-16-4-23.5c-0.9-2.1-4-7.1-4.7-7.6c-0.4,0.6-4.3,22.3-7.3,29.1
			c-2.1,9.4-4.1,18.8-6.1,28.2C56.9,276.3,56.5,278.4,56.1,280.9z"/>
		<path class="st0" d="M48.7,257c1.1-6.2,1.9-11.9,3.1-17.5c0.8-3.7,1.9-7.3,3.1-10.9c3.1-8.8,14.3-39.7,16.6-46.4
			c1.9-5.7,1-19.2,0.1-19.4c-1-0.3-14.9,15.7-17.8,20.6c-3.2,5.4-5.8,11.1-8.5,16.8c-1.7,3.5-3,7.2-4.5,10.9c-0.6,1.5-0.9,3-1.6,5.2
			c-1.6-3.3-3.1-6-4.3-8.8c-3.2-6.9-7.5-13.1-11.8-19.3c-5-7.2-9-15.1-12.5-23.2c-1.2-2.7-5-9.4-5.8-9.5c-0.4-0.1-5.8,16.4-2,37.1
			c1.5,8.5,3.6,16.9,8.7,24.1c4.4,6.2,9.2,12.1,14.3,17.8c5.6,6.2,11.7,11.9,17.6,17.9c1.1,1.1,2,2.4,3.1,3.5
			C47.2,256.2,47.9,256.5,48.7,257z"/>
		<path class="st0" d="M27.3,79.5c-1.6-0.8-15.7,21.5-15.9,47.3c-0.1,18.7,24.3,61.8,25.1,62.9c1.8-2.9,3.4-5.5,5-8.2
			c3.9-6.5,7.5-13.2,11.8-19.3c4.6-6.5,10.1-12.4,15-18.7c4.2-5.4,7-11.7,9.2-18.2c1.5-4.6,2.7-9.4,3.9-14.1c0.3-1,0.2-2,0.3-3.7
			c-1.1,0.5-2,0.6-2.6,1.1c-8.7,7.8-17.5,15.6-26.1,23.5c-3.8,3.5-7.3,7.2-10.9,10.9c-1.1,1.1-1.9,2.4-3,3.9
			C32.9,124.6,27.4,102.5,27.3,79.5z"/>
		<path class="st0" d="M62.9,78.4c-0.2-0.4-0.4-0.6-0.4-0.9c-0.2-7.3-0.3-14.7-0.4-22c-0.1-9.9,2.4-19.4,5.4-28.7
			c1.4-4.2,3.1-8.3,4.7-12.5c-2.8-0.9-24.9,10.3-31.8,42.6c-4.4,20.3,4,61.9,4.4,63.5c2.8-2.2,5.3-4.2,7.8-6.1
			c6-4.8,12.1-9.5,18.1-14.3c5.7-4.5,11.3-9,17-13.6c2.3-1.9,4.6-3.7,6.6-5.8c4.2-4.4,6-9.9,6.7-15.8c0.2-1.9,0.1-7.7-0.4-8
			c-0.5-0.3-6.6,3.7-8.9,5c-4.1,2.4-9.5,4.5-13.8,6.4c-5.5,2.5-9.3,5.8-13.9,9.7C63.7,78.1,63.4,78.2,62.9,78.4z"/>
		<path class="st0" d="M72.8,59.2c31.3-5.7,49.6-58.8,49.4-59.1c-0.3-0.4-12.2,0.7-21.4,6.9C73.8,25,72.4,57.8,72.8,59.2z"/>
	</g>
	<g>
		<path class="st0" d="M204.9,57.2V20.7h8.8v36.4c0,5.3,1.3,9.6,3.8,12.7c2.5,3.1,6.4,4.7,11.5,4.7c5.2,0,9-1.6,11.5-4.7
			c2.5-3.1,3.8-7.4,3.8-12.7V20.7h8.8v36.4c0,4-0.5,7.6-1.5,10.8c-1,3.2-2.5,6-4.4,8.3c-2,2.3-4.5,4-7.5,5.3
			c-3,1.2-6.6,1.8-10.7,1.8c-4.1,0-7.7-0.6-10.7-1.8c-3-1.2-5.5-3-7.5-5.3c-2-2.3-3.5-5-4.4-8.3C205.4,64.8,204.9,61.2,204.9,57.2z"
			/>
		<path class="st0" d="M278.9,83.1c-1.6,0-3.3-0.2-5-0.5c-1.7-0.3-3.3-0.8-4.9-1.4c-1.6-0.6-3-1.4-4.3-2.3c-1.3-0.9-2.5-1.9-3.4-3
			l5.3-5.5c1.8,1.7,3.7,3,5.7,3.9c2,0.9,4.2,1.4,6.6,1.4c0.9,0,1.9-0.1,2.9-0.4c1-0.2,2-0.6,2.9-1.1c0.9-0.5,1.6-1.1,2.2-1.9
			c0.6-0.8,0.8-1.7,0.8-2.8c0-0.9-0.3-1.7-0.8-2.4c-0.5-0.6-1.2-1.2-2.2-1.7c-0.9-0.5-2-0.9-3.1-1.3c-1.2-0.4-2.4-0.7-3.8-1.1
			c-1.8-0.5-3.7-1-5.5-1.5c-1.8-0.6-3.5-1.3-5-2.3c-1.5-1-2.7-2.2-3.6-3.7c-0.9-1.5-1.4-3.4-1.4-5.7c0.1-1.9,0.5-3.7,1.4-5.2
			c0.9-1.5,2.1-2.8,3.5-4c1.5-1.1,3.2-2,5.2-2.6c2-0.6,4.1-0.9,6.4-0.9c3.2,0,6,0.5,8.6,1.5c2.6,1,4.8,2.5,6.6,4.5l-4.8,5.4
			c-1.2-1.5-2.7-2.6-4.5-3.3c-1.8-0.7-3.7-1.1-5.7-1.1c-2.2,0-4.2,0.5-5.8,1.5c-1.6,1-2.5,2.3-2.5,4c0,0.9,0.3,1.7,0.8,2.4
			c0.5,0.6,1.2,1.2,2.2,1.7c0.9,0.5,2,0.9,3.2,1.3c1.2,0.4,2.4,0.7,3.7,1.1c1.7,0.4,3.4,0.9,5.1,1.4c1.7,0.5,3.3,1.2,4.8,2
			c1.5,0.8,2.7,1.9,3.7,3.1c1,1.3,1.7,2.8,1.9,4.7c0,0.3,0,0.6,0,0.9c0,0.3,0,0.7,0,1c-0.1,2-0.5,3.8-1.4,5.5
			c-0.9,1.7-2,3.1-3.6,4.3c-1.5,1.2-3.3,2.1-5.5,2.8S281.4,83.1,278.9,83.1z"/>
		<path class="st0" d="M321.8,83.2c-3.1,0-5.8-0.5-8.4-1.5c-2.5-1-4.7-2.5-6.5-4.4c-1.8-1.9-3.2-4.2-4.2-6.9c-1-2.7-1.5-5.7-1.5-9
			v-1.9c0-3.3,0.5-6.3,1.5-9c1-2.7,2.4-5,4.2-7c1.8-1.9,4-3.4,6.5-4.5c2.5-1.1,5.3-1.6,8.4-1.6c3,0,5.8,0.5,8.4,1.6
			c2.5,1.1,4.7,2.6,6.5,4.5c1.8,1.9,3.2,4.3,4.2,7c1,2.7,1.5,5.7,1.5,9v3h-32.7c0.2,3.8,1.3,7,3.3,9.5c2.1,2.6,5,3.8,8.8,3.8
			c2.4,0,4.6-0.5,6.5-1.4c1.9-0.9,3.5-2.1,4.9-3.5l5.7,5.1c-1.8,2.2-4.2,4-7.3,5.3C328.4,82.6,325.1,83.2,321.8,83.2z M310,55.8
			h23.6c-0.5-3.2-1.8-5.8-3.7-7.8c-2-2.1-4.7-3.1-8.1-3.1c-3.4,0-6.1,1-8.1,3.1C311.8,50,310.5,52.6,310,55.8z"/>
		<path class="st0" d="M349.1,82.3v-44h8.8v5.1c1.7-1.6,3.7-2.9,6-3.8c2.3-0.9,4.9-1.3,7.7-1.3v7.4c-1.9,0-3.7,0.3-5.4,0.9
			c-1.7,0.6-3.1,1.5-4.4,2.7c-1.2,1.2-2.2,2.6-2.9,4.3s-1.1,3.6-1.1,5.7v23.1H349.1z"/>
		<path class="st0" d="M435.3,82.3l-15.2-23.2h-11v23.2h-8.8V20.7h21.8c3.5,0,6.5,0.5,9.1,1.5c2.5,1,4.6,2.4,6.2,4.2
			c1.6,1.8,2.8,3.8,3.6,6.1c0.8,2.3,1.1,4.8,1.1,7.3c0,2-0.2,3.9-0.7,5.8c-0.5,1.9-1.2,3.6-2.2,5.2c-1,1.6-2.3,3-3.8,4.1
			c-1.5,1.2-3.4,2.1-5.5,2.7L446,82.3H435.3z M409.1,29.5v20.8h13c3.3,0,6.1-0.8,8.1-2.6c2.1-1.7,3.1-4.3,3.1-7.8
			c0-3.5-1-6.1-3.1-7.8c-2.1-1.7-4.8-2.6-8.1-2.6H409.1z"/>
		<path class="st0" d="M470.9,83.2c-3.1,0-5.8-0.5-8.4-1.5c-2.5-1-4.7-2.5-6.5-4.4c-1.8-1.9-3.2-4.2-4.2-6.9c-1-2.7-1.5-5.7-1.5-9
			v-1.9c0-3.3,0.5-6.3,1.5-9c1-2.7,2.4-5,4.2-7c1.8-1.9,4-3.4,6.5-4.5c2.5-1.1,5.3-1.6,8.4-1.6c3,0,5.8,0.5,8.4,1.6s4.7,2.6,6.5,4.5
			c1.8,1.9,3.2,4.3,4.2,7c1,2.7,1.5,5.7,1.5,9v3h-32.7c0.2,3.8,1.3,7,3.3,9.5s5,3.8,8.8,3.8c2.4,0,4.6-0.5,6.5-1.4
			c1.9-0.9,3.5-2.1,4.9-3.5l5.7,5.1c-1.8,2.2-4.2,4-7.3,5.3C477.5,82.6,474.2,83.2,470.9,83.2z M459.1,55.8h23.6
			c-0.5-3.2-1.8-5.8-3.7-7.8c-2-2.1-4.7-3.1-8.1-3.1c-3.4,0-6.1,1-8.1,3.1C460.8,50,459.6,52.6,459.1,55.8z"/>
		<path class="st0" d="M526,38.3h8.6l-14.8,44h-10.2l-14.8-44h8.6l11.3,33.4L526,38.3z"/>
		<path class="st0" d="M539.5,25.3c0-1.6,0.5-2.9,1.5-3.8s2.2-1.5,3.8-1.5s2.9,0.5,3.8,1.5s1.5,2.2,1.5,3.8s-0.5,2.9-1.5,3.8
			c-1,1-2.2,1.5-3.8,1.5s-2.9-0.5-3.8-1.5C540,28.2,539.5,26.9,539.5,25.3z M549.2,82.3h-8.8v-44h8.8V82.3z"/>
		<path class="st0" d="M577.2,83.2c-3.1,0-5.8-0.5-8.4-1.5c-2.5-1-4.7-2.5-6.5-4.4c-1.8-1.9-3.2-4.2-4.2-6.9c-1-2.7-1.5-5.7-1.5-9
			v-1.9c0-3.3,0.5-6.3,1.5-9c1-2.7,2.4-5,4.2-7c1.8-1.9,4-3.4,6.5-4.5c2.5-1.1,5.3-1.6,8.4-1.6c3,0,5.8,0.5,8.4,1.6
			c2.5,1.1,4.7,2.6,6.5,4.5c1.8,1.9,3.2,4.3,4.2,7c1,2.7,1.5,5.7,1.5,9v3H565c0.2,3.8,1.3,7,3.3,9.5c2.1,2.6,5,3.8,8.8,3.8
			c2.4,0,4.6-0.5,6.5-1.4c1.9-0.9,3.5-2.1,4.9-3.5l5.7,5.1c-1.8,2.2-4.2,4-7.3,5.3C583.8,82.6,580.5,83.2,577.2,83.2z M565.4,55.8
			H589c-0.5-3.2-1.8-5.8-3.7-7.8c-2-2.1-4.7-3.1-8.1-3.1s-6.1,1-8.1,3.1C567.1,50,565.9,52.6,565.4,55.8z"/>
		<path class="st0" d="M626.8,38.3h11.3l8.6,33.2l8.6-33.2h8.4l-11.4,44h-11.3l-8.6-33.2l-8.6,33.2h-11.3l-11.4-44h8.4l8.6,33.2
			L626.8,38.3z"/>
		<path class="st0" d="M684.7,83.1c-1.6,0-3.3-0.2-5-0.5c-1.7-0.3-3.3-0.8-4.9-1.4c-1.6-0.6-3-1.4-4.3-2.3c-1.3-0.9-2.5-1.9-3.4-3
			l5.3-5.5c1.8,1.7,3.7,3,5.7,3.9c2,0.9,4.2,1.4,6.6,1.4c0.9,0,1.9-0.1,2.9-0.4c1-0.2,2-0.6,2.9-1.1c0.9-0.5,1.6-1.1,2.2-1.9
			c0.6-0.8,0.8-1.7,0.8-2.8c0-0.9-0.3-1.7-0.8-2.4c-0.5-0.6-1.2-1.2-2.2-1.7c-0.9-0.5-2-0.9-3.1-1.3c-1.2-0.4-2.4-0.7-3.8-1.1
			c-1.8-0.5-3.7-1-5.5-1.5c-1.8-0.6-3.5-1.3-5-2.3s-2.7-2.2-3.6-3.7c-0.9-1.5-1.4-3.4-1.4-5.7c0.1-1.9,0.5-3.7,1.4-5.2
			c0.9-1.5,2.1-2.8,3.5-4c1.5-1.1,3.2-2,5.2-2.6c2-0.6,4.1-0.9,6.4-0.9c3.2,0,6,0.5,8.6,1.5c2.6,1,4.8,2.5,6.6,4.5l-4.8,5.4
			c-1.2-1.5-2.7-2.6-4.5-3.3s-3.7-1.1-5.7-1.1c-2.2,0-4.2,0.5-5.8,1.5c-1.6,1-2.5,2.3-2.5,4c0,0.9,0.3,1.7,0.8,2.4
			c0.5,0.6,1.2,1.2,2.2,1.7c0.9,0.5,2,0.9,3.2,1.3c1.2,0.4,2.4,0.7,3.7,1.1c1.7,0.4,3.4,0.9,5.1,1.4c1.7,0.5,3.3,1.2,4.8,2
			c1.5,0.8,2.7,1.9,3.7,3.1c1,1.3,1.7,2.8,1.9,4.7c0,0.3,0,0.6,0,0.9c0,0.3,0,0.7,0,1c-0.1,2-0.5,3.8-1.4,5.5
			c-0.9,1.7-2,3.1-3.6,4.3c-1.5,1.2-3.3,2.1-5.5,2.8C689.6,82.7,687.3,83.1,684.7,83.1z"/>
	</g>
	<g>
		<path class="st0" d="M239.6,374.2l36,0l21.9,0v-21.7L239.6,374.2"/>
		<g>
			<path class="st0" d="M297.5,352.5v76.7l27.4-86.9L297.5,352.5z"/>
		</g>
		<g>
			<path class="st0" d="M297.5,374.2l-21.9,0l21.9,55V374.2z"/>
		</g>
		<path class="st0" d="M239.6,374.2l41.7,14.1l-5.6-14.1L239.6,374.2z"/>
		<path class="st0" d="M620.8,393.6h-1.1c-0.4,0-0.7,0-1.1,0.1c-1.3,0.1-2.7,0.3-4,0.5c-1.3,0.2-2.5,0.6-3.5,1.1
			c-1,0.5-1.8,1.2-2.5,2.1c-0.6,0.9-1,1.9-1,3.3c0,1.5,0.4,2.8,1.3,3.8c0.9,1,2.3,1.6,4.3,1.6c1,0,2-0.1,2.9-0.4
			c0.9-0.3,1.7-0.6,2.4-1c0.7-0.4,1.2-0.9,1.6-1.4c0.4-0.5,0.6-1,0.6-1.4V393.6z M631,402.9c0,4.2,0.6,7.3,1.8,9.2
			c-1,0.4-1.8,0.6-2.7,0.8c-0.8,0.2-1.7,0.2-2.6,0.2c-1.9,0-3.4-0.4-4.4-1.1c-1-0.7-1.6-1.8-1.9-3.2c-1.2,1.2-2.7,2.3-4.6,3.1
			c-1.9,0.9-4.3,1.3-7,1.3c-1.4,0-2.9-0.2-4.3-0.6c-1.4-0.4-2.7-1.1-3.9-2c-1.2-0.9-2.1-2.1-2.9-3.6c-0.7-1.5-1.1-3.4-1.1-5.5
			c0-2.7,0.7-4.9,2-6.6c1.3-1.7,2.9-3,4.9-4c2-1,4.1-1.7,6.4-2c2.3-0.4,4.4-0.6,6.3-0.7c0.6-0.1,1.3-0.1,1.9-0.1h1.7v-1.5
			c0-2-0.5-3.5-1.6-4.4c-1.1-0.9-2.9-1.3-5.3-1.3c-2.3,0-4.3,0.4-6.1,1.1c-1.8,0.7-3.5,1.6-5.2,2.6c-0.7-0.9-1.3-1.9-1.8-3
			c-0.5-1.1-0.7-1.9-0.7-2.4c0-0.7,0.4-1.5,1.2-2.2c0.8-0.7,2-1.3,3.4-1.9c1.4-0.6,3.1-1,4.9-1.4c1.9-0.3,3.8-0.5,5.9-0.5
			c2.9,0,5.3,0.3,7.3,0.9c2,0.6,3.6,1.5,4.9,2.7c1.2,1.2,2.1,2.8,2.7,4.6c0.5,1.8,0.8,4,0.8,6.4V402.9z M579.2,378.1
			c0.3-0.5,0.7-1,1.3-1.6c0.5-0.6,1.2-1.1,2-1.6c0.8-0.5,1.6-0.9,2.6-1.2c0.9-0.3,1.9-0.5,3-0.5c0.6,0,1.3,0.1,2,0.2
			c0.7,0.1,1.4,0.3,2,0.6c0.6,0.3,1.1,0.7,1.5,1.2c0.4,0.5,0.6,1.1,0.6,1.9c0,1.2-0.3,2.5-0.9,4c-0.6,1.5-1.2,2.8-1.8,3.9
			c-0.9-0.7-1.8-1.3-2.7-1.7s-2-0.6-3.2-0.6c-1.6,0-3,0.5-4.1,1.4c-1.1,1-1.7,2.1-1.7,3.4v25.9h-10.9v-39c0.3-0.1,0.6-0.1,1-0.2
			c0.3-0.1,0.7-0.1,1.1-0.1c0.4,0,0.9,0,1.5,0c1.7,0,3.2,0.3,4.4,1C578.1,375.7,578.9,376.7,579.2,378.1z M548.3,378.1
			c0.3-0.5,0.7-1,1.3-1.6c0.5-0.6,1.2-1.1,2-1.6c0.8-0.5,1.6-0.9,2.6-1.2c0.9-0.3,1.9-0.5,3-0.5c0.6,0,1.3,0.1,2,0.2
			c0.7,0.1,1.4,0.3,2,0.6c0.6,0.3,1.1,0.7,1.5,1.2c0.4,0.5,0.6,1.1,0.6,1.9c0,1.2-0.3,2.5-0.9,4c-0.6,1.5-1.2,2.8-1.8,3.9
			c-0.9-0.7-1.8-1.3-2.7-1.7c-0.9-0.4-2-0.6-3.2-0.6c-1.6,0-3,0.5-4.1,1.4c-1.1,1-1.7,2.1-1.7,3.4v25.9h-10.9v-39
			c0.3-0.1,0.6-0.1,1-0.2c0.3-0.1,0.7-0.1,1.1-0.1c0.4,0,0.9,0,1.5,0c1.7,0,3.2,0.3,4.4,1C547.2,375.7,548,376.7,548.3,378.1z
			 M519.6,389.1c0-2.6-0.5-4.6-1.5-6.2c-1-1.6-2.8-2.4-5.3-2.4c-2.2,0-3.9,0.8-5.3,2.3c-1.3,1.5-2,3.6-2,6.4H519.6z M515.9,405.4
			c1.3,0,2.5-0.1,3.5-0.4c1-0.3,1.9-0.7,2.7-1.1c0.8-0.4,1.5-0.9,2.1-1.4c0.6-0.5,1.1-1,1.6-1.4c0.6,0.8,1.3,1.8,2,3.1
			c0.7,1.3,1,2.3,1,3.1c0,1.2-0.7,2.2-2,3.2c-1.1,0.9-2.7,1.6-4.7,2.2c-2.1,0.6-4.5,0.9-7.2,0.9c-2.5,0-5-0.3-7.4-1
			c-2.4-0.6-4.6-1.8-6.5-3.4c-1.9-1.6-3.4-3.7-4.6-6.4c-1.2-2.7-1.8-6.1-1.8-10.2c0-3.4,0.5-6.2,1.6-8.7c1-2.4,2.4-4.4,4.2-6
			c1.7-1.6,3.7-2.8,5.9-3.5c2.2-0.7,4.4-1.1,6.7-1.1c3,0,5.5,0.5,7.6,1.4c2.1,0.9,3.8,2.2,5.1,3.8c1.3,1.6,2.2,3.4,2.8,5.4
			c0.6,2,0.9,4.2,0.9,6.4v1.1c0,0.4,0,0.9,0,1.4c0,0.5-0.1,0.9-0.1,1.4c0,0.5-0.1,0.8-0.1,1.1h-23.6c0.2,2.9,1.1,5.4,2.7,7.3
			C509.9,404.4,512.5,405.4,515.9,405.4z M467.3,406.4c-0.4-1.1-0.6-2.2-0.7-3.4c-0.1-1.2-0.2-2.3-0.2-3.5v-37.1
			c0.4-0.1,0.8-0.1,1.2-0.2c0.4-0.1,0.8-0.1,1.2-0.1c0.4,0,0.9,0,1.3,0c0.9,0,1.7,0.1,2.6,0.2c0.9,0.2,1.6,0.5,2.3,1
			c0.7,0.5,1.2,1.1,1.7,2c0.4,0.8,0.6,1.9,0.6,3.2v5.7h11.2v8.1h-11.2v17c0,3.7,1.5,5.6,4.6,5.6c0.7,0,1.4-0.1,2.1-0.4
			c0.7-0.2,1.3-0.5,1.8-0.8c0.5-0.3,1-0.6,1.4-0.9c0.4-0.3,0.7-0.6,0.8-0.7c0.8,1.2,1.4,2.2,1.8,3c0.4,0.9,0.6,1.7,0.6,2.4
			c0,0.7-0.3,1.4-0.8,2.1c-0.6,0.7-1.3,1.3-2.4,1.9c-1,0.6-2.2,1-3.7,1.4c-1.4,0.3-3,0.5-4.7,0.5c-3.3,0-5.9-0.6-7.7-1.9
			C469.3,410.2,468,408.5,467.3,406.4z M447.5,392.7c0-1.6-0.1-3.1-0.4-4.5c-0.3-1.4-0.7-2.6-1.3-3.6c-0.6-1-1.4-1.8-2.5-2.4
			c-1-0.6-2.3-0.8-3.8-0.8c-2.2,0-3.8,0.4-4.6,1.3c-0.9,0.9-1.3,1.8-1.3,2.8v16.9c0.4,0.4,1.2,0.9,2.3,1.5c1.1,0.6,2.3,0.9,3.8,0.9
			c2.7,0,4.7-1.1,6-3.2C446.9,399.5,447.5,396.5,447.5,392.7z M433.2,377.9c0.9-1,2.2-2,4-3.1c1.8-1,4.1-1.6,6.8-1.6
			c2,0,3.8,0.3,5.6,1c1.8,0.7,3.4,1.7,4.7,3.2c1.4,1.5,2.5,3.5,3.3,5.9s1.2,5.5,1.2,9c0,4.2-0.5,7.6-1.4,10.3
			c-1,2.7-2.2,4.8-3.7,6.4c-1.5,1.6-3.2,2.7-5.1,3.3c-1.9,0.6-3.7,1-5.6,1c-1.5,0-2.9-0.2-4-0.5c-1.1-0.3-2.1-0.7-2.9-1.2
			c-0.8-0.4-1.4-0.9-1.8-1.3c-0.4-0.4-0.7-0.7-0.8-0.9v19.6h-10.9v-54.8c0.3-0.1,0.6-0.1,1-0.2c0.3-0.1,0.7-0.1,1.1-0.1
			c0.4,0,0.9,0,1.5,0c1.8,0,3.3,0.3,4.5,0.9C432.1,375.5,432.8,376.5,433.2,377.9z M403.1,393.6h-1.1c-0.4,0-0.7,0-1.1,0.1
			c-1.3,0.1-2.6,0.3-4,0.5c-1.3,0.2-2.5,0.6-3.5,1.1c-1,0.5-1.8,1.2-2.5,2.1c-0.6,0.9-1,1.9-1,3.3c0,1.5,0.4,2.8,1.3,3.8
			c0.9,1,2.3,1.6,4.3,1.6c1,0,2-0.1,2.9-0.4c0.9-0.3,1.7-0.6,2.4-1s1.2-0.9,1.6-1.4c0.4-0.5,0.6-1,0.6-1.4V393.6z M413.3,402.9
			c0,4.2,0.6,7.3,1.8,9.2c-1,0.4-1.8,0.6-2.7,0.8c-0.8,0.2-1.7,0.2-2.6,0.2c-1.9,0-3.4-0.4-4.3-1.1c-1-0.7-1.6-1.8-1.9-3.2
			c-1.2,1.2-2.7,2.3-4.6,3.1c-1.9,0.9-4.3,1.3-7,1.3c-1.4,0-2.9-0.2-4.3-0.6c-1.4-0.4-2.7-1.1-3.9-2c-1.2-0.9-2.1-2.1-2.9-3.6
			c-0.7-1.5-1.1-3.4-1.1-5.5c0-2.7,0.7-4.9,2-6.6c1.3-1.7,2.9-3,4.9-4c2-1,4.1-1.7,6.4-2c2.3-0.4,4.4-0.6,6.3-0.7
			c0.6-0.1,1.3-0.1,1.9-0.1h1.7v-1.5c0-2-0.5-3.5-1.6-4.4c-1.1-0.9-2.9-1.3-5.3-1.3c-2.3,0-4.3,0.4-6.1,1.1
			c-1.8,0.7-3.5,1.6-5.2,2.6c-0.7-0.9-1.3-1.9-1.8-3c-0.5-1.1-0.7-1.9-0.7-2.4c0-0.7,0.4-1.5,1.2-2.2c0.8-0.7,2-1.3,3.4-1.9
			c1.4-0.6,3.1-1,5-1.4c1.9-0.3,3.8-0.5,5.9-0.5c2.9,0,5.3,0.3,7.3,0.9c2,0.6,3.6,1.5,4.9,2.7c1.2,1.2,2.1,2.8,2.7,4.6
			c0.5,1.8,0.8,4,0.8,6.4V402.9z M372.4,409c-0.3,0.3-0.9,0.7-1.6,1.2c-0.7,0.5-1.7,1-2.9,1.4c-1.2,0.5-2.6,0.9-4.4,1.2
			c-1.7,0.3-3.7,0.5-5.9,0.5c-4.3,0-8-0.7-11.1-2.1c-3.1-1.4-5.7-3.3-7.7-5.8c-2-2.5-3.5-5.4-4.5-8.7s-1.4-7.1-1.4-11.1
			c0-4,0.5-7.7,1.5-11.2c1-3.4,2.6-6.4,4.6-8.9c2.1-2.5,4.6-4.4,7.7-5.8c3.1-1.4,6.7-2.1,10.9-2.1c2.1,0,3.9,0.2,5.6,0.6
			c1.7,0.4,3.1,0.8,4.4,1.3c1.2,0.5,2.3,1,3.1,1.6c0.8,0.6,1.4,1,1.9,1.4c0.5,0.4,0.9,0.9,1.2,1.5c0.3,0.6,0.5,1.2,0.5,1.9
			c0,1.1-0.4,2.1-1.2,3.2c-0.8,1.1-1.7,2-2.6,2.9c-0.6-0.6-1.3-1.3-2.1-1.9s-1.7-1.2-2.7-1.7c-1-0.5-2.1-0.9-3.3-1.3
			c-1.2-0.3-2.6-0.5-4.2-0.5c-2.7,0-5,0.5-6.8,1.6c-1.8,1.1-3.3,2.5-4.4,4.2c-1.1,1.7-1.9,3.7-2.4,6c-0.5,2.3-0.7,4.5-0.7,6.9
			c0,2.5,0.2,4.9,0.7,7.1c0.5,2.3,1.3,4.3,2.5,6c1.2,1.7,2.7,3.2,4.6,4.2c1.9,1.1,4.2,1.6,7,1.6c1.5,0,2.8-0.2,4.1-0.6
			c1.2-0.4,2.3-0.8,3.3-1.4c1-0.5,1.8-1.1,2.5-1.7c0.7-0.6,1.3-1.1,1.8-1.5c0.3,0.4,0.7,0.8,1.1,1.4c0.4,0.5,0.8,1.1,1.2,1.7
			c0.4,0.6,0.7,1.2,1,1.7c0.3,0.6,0.4,1.1,0.4,1.6c0,0.7-0.1,1.3-0.4,1.7C373.4,407.9,372.9,408.4,372.4,409"/>
	</g>
	<line class="st1" x1="168" y1="304.7" x2="736.6" y2="304.7"/>
	<g>
		<path class="st2" d="M690.9,156l12.3,24.9c0.5,1,1.5,1.7,2.6,1.9l27.5,4c2.8,0.4,4,3.9,1.9,5.9l-19.9,19.4c-0.8,0.8-1.2,1.9-1,3.1
			l4.7,27.4c0.5,2.8-2.5,5-5,3.6l-24.6-12.9c-1-0.5-2.2-0.5-3.2,0l-24.6,12.9c-2.5,1.3-5.5-0.8-5-3.6l4.7-27.4
			c0.2-1.1-0.2-2.3-1-3.1l-19.9-19.4c-2.1-2-0.9-5.5,1.9-5.9l27.5-4c1.1-0.2,2.1-0.9,2.6-1.9l12.3-24.9
			C685.9,153.4,689.6,153.4,690.9,156z"/>
		<path class="st0" d="M219.2,156l12.3,24.9c0.5,1,1.5,1.7,2.6,1.9l27.5,4c2.8,0.4,4,3.9,1.9,5.9l-19.9,19.4c-0.8,0.8-1.2,1.9-1,3.1
			l4.7,27.4c0.5,2.8-2.5,5-5,3.6l-24.6-12.9c-1-0.5-2.2-0.5-3.2,0l-24.6,12.9c-2.5,1.3-5.5-0.8-5-3.6l4.7-27.4
			c0.2-1.1-0.2-2.3-1-3.1l-19.9-19.4c-2.1-2-0.9-5.5,1.9-5.9l27.5-4c1.1-0.2,2.1-0.9,2.6-1.9L213,156
			C214.3,153.4,218,153.4,219.2,156z"/>
		<path class="st0" d="M337.1,156l12.3,24.9c0.5,1,1.5,1.7,2.6,1.9l27.5,4c2.8,0.4,4,3.9,1.9,5.9l-19.9,19.4c-0.8,0.8-1.2,1.9-1,3.1
			l4.7,27.4c0.5,2.8-2.5,5-5,3.6l-24.6-12.9c-1-0.5-2.2-0.5-3.2,0l-24.6,12.9c-2.5,1.3-5.5-0.8-5-3.6l4.7-27.4
			c0.2-1.1-0.2-2.3-1-3.1l-19.9-19.4c-2.1-2-0.9-5.5,1.9-5.9l27.5-4c1.1-0.2,2.1-0.9,2.6-1.9l12.3-24.9
			C332.2,153.4,335.9,153.4,337.1,156z"/>
		<path class="st0" d="M455,156l12.3,24.9c0.5,1,1.5,1.7,2.6,1.9l27.5,4c2.8,0.4,4,3.9,1.9,5.9l-19.9,19.4c-0.8,0.8-1.2,1.9-1,3.1
			l4.7,27.4c0.5,2.8-2.5,5-5,3.6l-24.6-12.9c-1-0.5-2.2-0.5-3.2,0l-24.6,12.9c-2.5,1.3-5.5-0.8-5-3.6l4.7-27.4
			c0.2-1.1-0.2-2.3-1-3.1l-19.9-19.4c-2.1-2-0.9-5.5,1.9-5.9l27.5-4c1.1-0.2,2.1-0.9,2.6-1.9l12.3-24.9
			C450.1,153.4,453.8,153.4,455,156z"/>
		<path class="st0" d="M573,156l12.3,24.9c0.5,1,1.5,1.7,2.6,1.9l27.5,4c2.8,0.4,4,3.9,1.9,5.9l-19.9,19.4c-0.8,0.8-1.2,1.9-1,3.1
			l4.7,27.4c0.5,2.8-2.5,5-5,3.6l-24.6-12.9c-1-0.5-2.2-0.5-3.2,0l-24.6,12.9c-2.5,1.3-5.5-0.8-5-3.6l4.7-27.4
			c0.2-1.1-0.2-2.3-1-3.1l-19.9-19.4c-2.1-2-0.9-5.5,1.9-5.9l27.5-4c1.1-0.2,2.1-0.9,2.6-1.9l12.3-24.9
			C568,153.4,571.7,153.4,573,156z"/>
		<path class="st0" d="M703.4,181.2c-0.1-0.1-0.2-0.2-0.2-0.3L690.9,156c-1.3-2.6-4.9-2.6-6.2,0l-12.3,24.9c-0.5,1-1.5,1.7-2.6,1.9
			l-27.5,4c-2.8,0.4-4,3.9-1.9,5.9l19.9,19.4c0.8,0.8,1.2,1.9,1,3.1l-4.7,27.4c-0.5,2.8,2.5,5,5,3.6l24.6-12.9c1-0.5,2.2-0.5,3.2,0
			l14,7.4V181.2z"/>
	</g>
</g>
</svg>
