<?xml version="1.0" encoding="utf-8"?>
<!-- Generator: Adobe Illustrator 26.2.1, SVG Export Plug-In . SVG Version: 6.00 Build 0)  -->
<svg version="1.1" id="Layer_1" xmlns="http://www.w3.org/2000/svg" xmlns:xlink="http://www.w3.org/1999/xlink" x="0px" y="0px"
	 viewBox="0 0 903.8 426.2" style="enable-background:new 0 0 903.8 426.2;" xml:space="preserve">
<style type="text/css">
	.st0{fill:#798CA5;}
	.st1{fill:none;stroke:#BEC8DA;stroke-width:4;stroke-miterlimit:10;}
	.st2{fill:#FFFFFF;}
	.st3{enable-background:new    ;}
</style>
<g>
	<g>
		<g>
			<path class="st0" d="M759.1,415.5c-9.4-0.5-19.6-2.2-29.5-5.7c-6.5-2.3-13.2-4.4-19.7-6.7c-0.7-0.2-1.2-0.9-1.9-1.3
				c0.5-0.5,1-1.1,1.6-1.6c3.4-3,7-5.7,10.1-9c5.8-6.3,10.5-13.5,14.7-21c3.5-6.2,7-12.4,11.2-18.2c4.3-6,9.2-11.7,14.3-17.1
				c3.7-3.9,8.2-7.2,12.4-10.6c0.9-0.7,4.1-2,4.7-2.1c0.1,0.6-3,11.8-4.5,16.9c-2.4,8.2-4.5,16.4-7.2,24.5
				c-3.1,9-6.7,17.8-10.1,26.8c-0.2,0.6-0.3,1.2-0.5,1.8c0.7,0.1,1.4,0.4,2.1,0.3c8.3-1.4,16.6-2.9,24.9-4.5
				c8.8-1.7,17.7-3.3,26.5-5.3c9.6-2.2,19-4.9,28.6-7.3c0.8-0.2,2.1-0.1,2.5,0.4c0.5,0.7,0.7,2,0.3,2.8c-4.4,10-11,18.1-20.4,23.9
				c-8.6,5.4-18.1,8.2-28.1,9.9C780.8,414,770.6,415.3,759.1,415.5z"/>
			<path class="st0" d="M812.1,324c-0.1,5.3-1.6,12-2,17.3c-0.2,2.3,0.3,2.7,2.5,1.7c4.7-2.1,9.5-4.1,14.1-6.5
				c8.1-4.2,16.4-8.3,24.2-13.1c7.3-4.4,14.1-9.4,21-14.3c2.8-2,8.9-7.3,9.5-7.5c0.2,0.5-0.7,17.5-4.9,24.4
				c-3.3,5.4-7.5,10.5-11.8,15.2c-3.7,4.1-8,7.7-12.4,11.1c-6.2,4.9-13.1,8.7-20.4,11.9c-6.7,2.9-13.6,5.3-20.8,6.6
				c-3,0.5-6,0.9-9,1.2c-6.4,0.7-12.8,1.4-19.2,2.1c-1.2,0.1-2.5,0.2-3.7,0.1c-0.7-0.1-1.1-0.4-0.8-1.7c1.9-7,3.8-14,5.4-21.1
				c1.2-5.2,2.1-10.4,3.1-15.6c1.4-7.2,2.8-14.4,4.4-21.5c2.1-9.7,3.8-19.6,8.4-28.7c2.1-4.3,4.9-8.1,8.4-11.4
				c0.5-0.4,1.3-0.6,2-0.7C810.4,273.7,812.3,315.8,812.1,324z"/>
			<path class="st0" d="M847.7,280.9c0.6-0.4,1-0.7,1.3-1c5.7-5.3,11.6-10.5,17.2-16c5.6-5.5,11-11.2,16.2-17
				c4.8-5.3,9.2-10.8,13.8-16.2c1.4-1.6,5.1-5.9,5.6-6.3c0.3,0.6,6.8,15.7-6,41.2c-3.7,6.6-8.3,12.7-13.1,18.6
				c-6.7,8.2-14.7,14.7-23,21.1c-7.2,5.6-15,10.3-23.1,14.5c-2.2,1.1-4.4,2.1-6.7,3c-2,0.9-2.5,0.5-2.4-1.7c0.2-5.5,0.6-11,0.6-16.5
				c0.1-9.9-0.9-19.7-2.1-29.5c-1.1-9-1.8-18-1.8-27.1c0-8,0.9-16,4-23.5c0.9-2.1,4-7.1,4.7-7.6c0.4,0.6,4.3,22.3,7.3,29.1
				c2.1,9.4,4.1,18.8,6.1,28.2C846.9,276.3,847.2,278.4,847.7,280.9z"/>
			<path class="st0" d="M855.1,257c-1.1-6.2-1.9-11.9-3.1-17.5c-0.8-3.7-1.9-7.3-3.1-10.9c-3.1-8.8-14.3-39.7-16.6-46.4
				c-1.9-5.7-1-19.2-0.1-19.4c1-0.3,14.9,15.7,17.8,20.6c3.2,5.4,5.8,11.1,8.5,16.8c1.7,3.5,3,7.2,4.5,10.9c0.6,1.5,0.9,3,1.6,5.2
				c1.6-3.3,3.1-6,4.3-8.8c3.2-6.9,7.5-13.1,11.8-19.3c5-7.2,9-15.1,12.5-23.2c1.2-2.7,5-9.4,5.8-9.5c0.4-0.1,5.8,16.4,2,37.1
				c-1.5,8.5-3.6,16.9-8.7,24.1c-4.4,6.2-9.2,12.1-14.3,17.8c-5.6,6.2-11.7,11.9-17.6,17.9c-1.1,1.1-2,2.4-3.1,3.5
				C856.6,256.2,855.8,256.5,855.1,257z"/>
			<path class="st0" d="M876.5,79.5c1.6-0.8,15.7,21.5,15.9,47.3c0.1,18.7-24.3,61.8-25.1,62.9c-1.8-2.9-3.4-5.5-5-8.2
				c-3.9-6.5-7.5-13.2-11.8-19.3c-4.6-6.5-10.1-12.4-15-18.7c-4.2-5.4-7-11.7-9.2-18.2c-1.5-4.6-2.7-9.4-3.9-14.1
				c-0.3-1-0.2-2-0.3-3.7c1.1,0.5,2,0.6,2.6,1.1c8.7,7.8,17.5,15.6,26.1,23.5c3.8,3.5,7.3,7.2,10.9,10.9c1.1,1.1,1.9,2.4,3,3.9
				C870.9,124.6,876.4,102.5,876.5,79.5z"/>
			<path class="st0" d="M840.8,78.4c0.2-0.4,0.4-0.6,0.4-0.9c0.2-7.3,0.3-14.7,0.4-22c0.1-9.9-2.4-19.4-5.4-28.7
				c-1.4-4.2-3.1-8.3-4.7-12.5c2.8-0.9,24.9,10.3,31.8,42.6c4.4,20.3-4,61.9-4.4,63.5c-2.8-2.2-5.3-4.2-7.8-6.1
				c-6-4.8-12.1-9.5-18.1-14.3c-5.7-4.5-11.3-9-17-13.6c-2.3-1.9-4.6-3.7-6.6-5.8c-4.2-4.4-6-9.9-6.7-15.8c-0.2-1.9-0.1-7.7,0.4-8
				c0.5-0.3,6.6,3.7,8.9,5c4.1,2.4,9.5,4.5,13.8,6.4c5.5,2.5,9.3,5.8,13.9,9.7C840,78.1,840.4,78.2,840.8,78.4z"/>
			<path class="st0" d="M831,59.2c-31.3-5.7-49.6-58.8-49.4-59.1c0.3-0.4,12.2,0.7,21.4,6.9C829.9,25,831.4,57.8,831,59.2z"/>
		</g>
		<g>
			<path class="st0" d="M144.6,415.5c9.4-0.5,19.6-2.2,29.5-5.7c6.5-2.3,13.2-4.4,19.7-6.7c0.7-0.2,1.2-0.9,1.9-1.3
				c-0.5-0.5-1-1.1-1.6-1.6c-3.4-3-7-5.7-10.1-9c-5.8-6.3-10.5-13.5-14.7-21c-3.5-6.2-7-12.4-11.2-18.2c-4.3-6-9.2-11.7-14.3-17.1
				c-3.7-3.9-8.2-7.2-12.4-10.6c-0.9-0.7-4.1-2-4.7-2.1c-0.1,0.6,3,11.8,4.5,16.9c2.4,8.2,4.5,16.4,7.2,24.5
				c3.1,9,6.7,17.8,10.1,26.8c0.2,0.6,0.3,1.2,0.5,1.8c-0.7,0.1-1.4,0.4-2.1,0.3c-8.3-1.4-16.6-2.9-24.9-4.5
				c-8.8-1.7-17.7-3.3-26.5-5.3c-9.6-2.2-19-4.9-28.6-7.3c-0.8-0.2-2.1-0.1-2.5,0.4c-0.5,0.7-0.7,2-0.3,2.8
				c4.4,10,11,18.1,20.4,23.9c8.6,5.4,18.1,8.2,28.1,9.9C123,414,133.2,415.3,144.6,415.5z"/>
			<path class="st0" d="M91.7,324c0.1,5.3,1.6,12,2,17.3c0.2,2.3-0.3,2.7-2.5,1.7c-4.7-2.1-9.5-4.1-14.1-6.5
				c-8.1-4.2-16.4-8.3-24.2-13.1c-7.3-4.4-14.1-9.4-21-14.3c-2.8-2-8.9-7.3-9.5-7.5c-0.2,0.5,0.7,17.5,4.9,24.4
				c3.3,5.4,7.5,10.5,11.8,15.2c3.7,4.1,8,7.7,12.4,11.1c6.2,4.9,13.1,8.7,20.4,11.9c6.7,2.9,13.6,5.3,20.8,6.6c3,0.5,6,0.9,9,1.2
				c6.4,0.7,12.8,1.4,19.2,2.1c1.2,0.1,2.5,0.2,3.7,0.1c0.7-0.1,1.1-0.4,0.8-1.7c-1.9-7-3.8-14-5.4-21.1c-1.2-5.2-2.1-10.4-3.1-15.6
				c-1.4-7.2-2.8-14.4-4.4-21.5c-2.1-9.7-3.8-19.6-8.4-28.7c-2.1-4.3-4.9-8.1-8.4-11.4c-0.5-0.4-1.3-0.6-2-0.7
				C93.4,273.7,91.4,315.8,91.7,324z"/>
			<path class="st0" d="M56.1,280.9c-0.6-0.4-1-0.7-1.3-1c-5.7-5.3-11.6-10.5-17.2-16c-5.6-5.5-11-11.2-16.2-17
				c-4.8-5.3-9.2-10.8-13.8-16.2c-1.4-1.6-5.1-5.9-5.6-6.3c-0.3,0.6-6.8,15.7,6,41.2c3.7,6.6,8.3,12.7,13.1,18.6
				c6.7,8.2,14.7,14.7,23,21.1c7.2,5.6,15,10.3,23.1,14.5c2.2,1.1,4.4,2.1,6.7,3c2,0.9,2.5,0.5,2.4-1.7c-0.2-5.5-0.6-11-0.6-16.5
				c-0.1-9.9,0.9-19.7,2.1-29.5c1.1-9,1.8-18,1.8-27.1c0-8-0.9-16-4-23.5c-0.9-2.1-4-7.1-4.7-7.6c-0.4,0.6-4.3,22.3-7.3,29.1
				c-2.1,9.4-4.1,18.8-6.1,28.2C56.9,276.3,56.5,278.4,56.1,280.9z"/>
			<path class="st0" d="M48.7,257c1.1-6.2,1.9-11.9,3.1-17.5c0.8-3.7,1.9-7.3,3.1-10.9c3.1-8.8,14.3-39.7,16.6-46.4
				c1.9-5.7,1-19.2,0.1-19.4c-1-0.3-14.9,15.7-17.8,20.6c-3.2,5.4-5.8,11.1-8.5,16.8c-1.7,3.5-3,7.2-4.5,10.9
				c-0.6,1.5-0.9,3-1.6,5.2c-1.6-3.3-3.1-6-4.3-8.8c-3.2-6.9-7.5-13.1-11.8-19.3c-5-7.2-9-15.1-12.5-23.2c-1.2-2.7-5-9.4-5.8-9.5
				c-0.4-0.1-5.8,16.4-2,37.1c1.5,8.5,3.6,16.9,8.7,24.1c4.4,6.2,9.2,12.1,14.3,17.8c5.6,6.2,11.7,11.9,17.6,17.9
				c1.1,1.1,2,2.4,3.1,3.5C47.2,256.2,47.9,256.5,48.7,257z"/>
			<path class="st0" d="M27.3,79.5c-1.6-0.8-15.7,21.5-15.9,47.3c-0.1,18.7,24.3,61.8,25.1,62.9c1.8-2.9,3.4-5.5,5-8.2
				c3.9-6.5,7.5-13.2,11.8-19.3c4.6-6.5,10.1-12.4,15-18.7c4.2-5.4,7-11.7,9.2-18.2c1.5-4.6,2.7-9.4,3.9-14.1c0.3-1,0.2-2,0.3-3.7
				c-1.1,0.5-2,0.6-2.6,1.1c-8.7,7.8-17.5,15.6-26.1,23.5c-3.8,3.5-7.3,7.2-10.9,10.9c-1.1,1.1-1.9,2.4-3,3.9
				C32.9,124.6,27.4,102.5,27.3,79.5z"/>
			<path class="st0" d="M62.9,78.4c-0.2-0.4-0.4-0.6-0.4-0.9c-0.2-7.3-0.3-14.7-0.4-22c-0.1-9.9,2.4-19.4,5.4-28.7
				c1.4-4.2,3.1-8.3,4.7-12.5c-2.8-0.9-24.9,10.3-31.8,42.6c-4.4,20.3,4,61.9,4.4,63.5c2.8-2.2,5.3-4.2,7.8-6.1
				c6-4.8,12.1-9.5,18.1-14.3c5.7-4.5,11.3-9,17-13.6c2.3-1.9,4.6-3.7,6.6-5.8c4.2-4.4,6-9.9,6.7-15.8c0.2-1.9,0.1-7.7-0.4-8
				c-0.5-0.3-6.6,3.7-8.9,5c-4.1,2.4-9.5,4.5-13.8,6.4c-5.5,2.5-9.3,5.8-13.9,9.7C63.7,78.1,63.4,78.2,62.9,78.4z"/>
			<path class="st0" d="M72.8,59.2c31.3-5.7,49.6-58.8,49.4-59.1c-0.3-0.4-12.2,0.7-21.4,6.9C73.8,25,72.4,57.8,72.8,59.2z"/>
		</g>
		<g>
			<g>
				<path class="st0" d="M183.5,100.2v-9.3c0-4,0.7-7.6,2-11c1.3-3.3,3.2-6.2,5.6-8.6c2.4-2.4,5.3-4.3,8.7-5.7c3.4-1.3,7.2-2,11.4-2
					s7.9,0.7,11.4,2c3.4,1.4,6.3,3.2,8.7,5.7c2.4,2.4,4.3,5.3,5.6,8.6c1.3,3.3,2,7,2,11v9.3c0,3.5-0.5,6.7-1.5,9.6
					c-1,3-2.4,5.6-4.3,7.9l6,5.6l-5.8,5.8l-6.2-5.9c-2.2,1.4-4.6,2.4-7.2,3.1c-2.6,0.7-5.5,1.1-8.5,1.1c-4.2,0-7.9-0.7-11.4-2
					s-6.3-3.2-8.7-5.7c-2.4-2.4-4.3-5.3-5.6-8.7C184.1,107.8,183.5,104.1,183.5,100.2z M194,90.9v9.3c0,2.4,0.4,4.6,1.2,6.6
					c0.8,2,1.9,3.8,3.4,5.3s3.3,2.7,5.4,3.5c2.1,0.9,4.5,1.3,7,1.3c2.8,0,5.2-0.6,7.3-1.7l-2.7-2.6l5.8-5.8l3.5,3.3
					c2.1-2.9,3.2-6.2,3.2-9.9v-9.3c0-2.4-0.4-4.6-1.2-6.6c-0.8-2-1.9-3.8-3.4-5.3s-3.3-2.7-5.4-3.5c-2.1-0.8-4.5-1.3-7-1.3
					s-4.9,0.4-7,1.3c-2.1,0.9-3.9,2-5.4,3.5s-2.6,3.3-3.4,5.3C194.4,86.3,194,88.5,194,90.9z"/>
				<path class="st0" d="M285.9,126.3h-10.6v-3c-1.5,1.2-3.1,2.2-5,2.9c-1.9,0.7-4,1.1-6.2,1.1c-2.8,0-5.3-0.5-7.5-1.4
					s-4.1-2.2-5.6-3.9c-1.6-1.7-2.7-3.7-3.6-5.9c-0.8-2.3-1.2-4.8-1.2-7.6V82.3h10.6v26.2c0,2.6,0.9,4.7,2.7,6.4
					c1.8,1.7,4,2.6,6.6,2.6s4.9-0.8,6.6-2.6c1.8-1.7,2.7-3.8,2.7-6.4V82.3h10.6V126.3z"/>
				<path class="st0" d="M331.5,96.3v30.1h-9.9v-4c-1.6,1.5-3.5,2.7-5.6,3.6s-4.5,1.3-7.1,1.3c-5,0-9.1-1.2-12-3.6
					c-3-2.4-4.4-5.6-4.4-9.6c0-2.3,0.5-4.2,1.4-5.9c0.9-1.6,2.2-2.9,3.7-4c1.5-1.1,3.2-1.9,5.1-2.5c1.9-0.6,3.8-1.1,5.8-1.4
					c1.9-0.3,3.8-0.5,5.6-0.6c1.8-0.1,3.3-0.1,4.5-0.1h3.1v-3.3c0-1.8-0.8-3.1-2.3-4.1c-1.6-1-3.6-1.5-6.1-1.5
					c-1.8,0-3.6,0.4-5.5,1.1c-1.8,0.8-3.4,1.9-4.8,3.4l-6.4-6.7c1.9-2,4.4-3.7,7.3-5c2.9-1.3,6-2,9.2-2c2.8,0,5.3,0.4,7.6,1.1
					c2.3,0.7,4.2,1.7,5.9,3c1.6,1.3,2.9,2.8,3.7,4.7C331.1,92,331.5,94,331.5,96.3z M321.5,106.8h-3.8c-1.8,0-3.7,0.1-5.5,0.2
					c-1.9,0.1-3.6,0.4-5.1,0.8c-1.5,0.4-2.8,1-3.7,1.8c-0.9,0.8-1.4,1.8-1.4,3.2c0,1.9,0.8,3.4,2.4,4.5c1.6,1.1,3.5,1.6,5.8,1.6
					c3.2,0,5.8-1.1,7.8-3.3C319.9,113.4,321,110.5,321.5,106.8z"/>
				<path class="st0" d="M339.8,126.3V64.7h10.6v61.6H339.8z"/>
				<path class="st0" d="M358.6,69.5c0-1.9,0.6-3.4,1.7-4.5c1.1-1.1,2.6-1.7,4.5-1.7c1.9,0,3.4,0.6,4.5,1.7c1.1,1.1,1.7,2.6,1.7,4.5
					c0,1.9-0.6,3.4-1.7,4.5c-1.1,1.1-2.6,1.7-4.5,1.7c-1.9,0-3.4-0.6-4.5-1.7C359.2,72.9,358.6,71.4,358.6,69.5z M370,126.3h-10.6
					v-44H370V126.3z"/>
				<path class="st0" d="M376,90.6v-8.3h5.5V70H392v12.3h8.3v8.3H392v19.5c0,2.1,0.8,3.7,2.3,4.8c1.6,1.1,3.7,1.6,6.3,1.6v9.9
					c-5.9,0-10.5-1.2-14-3.5c-3.5-2.3-5.2-6.1-5.2-11.3V90.6H376z"/>
				<path class="st0" d="M408.2,143.9v-9.2c1.8,0,3.4-0.3,4.6-1c1.3-0.6,2.3-1.4,3.2-2.3c0.8-0.9,1.5-1.9,2-2.9
					c0.5-1,0.8-1.8,1.1-2.5l-15.4-43.7h10.2l10.3,29.5l10.6-29.5H445l-15.8,44c-0.5,1.5-1.2,3.3-2.1,5.3c-0.9,2-2.1,3.9-3.7,5.8
					s-3.6,3.4-6,4.6C414.9,143.3,411.9,143.9,408.2,143.9z"/>
				<path class="st0" d="M470.6,100.2v-9.3c0-4,0.7-7.6,2-11c1.3-3.3,3.2-6.2,5.6-8.6c2.4-2.4,5.3-4.3,8.7-5.7c3.4-1.3,7.2-2,11.4-2
					c4.8,0,9,0.9,12.7,2.6c3.7,1.8,6.8,4.2,9.3,7.2l-8.4,6.9c-1.5-1.9-3.4-3.4-5.7-4.5c-2.3-1.1-4.9-1.7-7.9-1.7
					c-2.6,0-4.9,0.4-7,1.3c-2.1,0.9-3.9,2-5.4,3.5c-1.5,1.5-2.6,3.3-3.4,5.3c-0.8,2-1.2,4.2-1.2,6.6v9.3c0,2.4,0.4,4.6,1.2,6.6
					c0.8,2,1.9,3.8,3.4,5.3c1.5,1.5,3.3,2.7,5.4,3.5s4.5,1.3,7,1.3c3,0,5.6-0.6,7.9-1.7c2.3-1.1,4.2-2.6,5.7-4.5l8.4,6.9
					c-2.5,3.1-5.6,5.5-9.3,7.2c-3.7,1.8-8,2.6-12.7,2.6c-4.2,0-8-0.7-11.4-2c-3.4-1.3-6.3-3.2-8.7-5.7c-2.4-2.4-4.3-5.3-5.6-8.7
					C471.3,107.8,470.6,104.1,470.6,100.2z"/>
				<path class="st0" d="M526.8,64.7h10.6v20.8c3-2.3,6.8-3.5,11.3-3.5c2.8,0,5.4,0.5,7.7,1.4c2.3,0.9,4.3,2.3,5.9,4
					c1.6,1.7,2.9,3.8,3.8,6.2c0.9,2.4,1.3,5.1,1.3,8.1v24.6h-9.9v-24.6c0-3.1-1-5.7-2.9-7.7c-1.9-2-4.3-3-7.2-3c-2.9,0-5.3,1-7.2,3
					c-1.9,2-2.9,4.6-2.9,7.7v24.6h-10.6V64.7z"/>
				<path class="st0" d="M615.2,103.5v1.8c0,3.3-0.5,6.3-1.5,9c-1,2.7-2.5,5-4.3,7c-1.8,1.9-4,3.4-6.6,4.5c-2.6,1.1-5.4,1.6-8.5,1.6
					s-5.9-0.5-8.5-1.6c-2.6-1.1-4.8-2.6-6.6-4.5c-1.8-1.9-3.3-4.3-4.3-7c-1-2.7-1.5-5.7-1.5-9v-1.8c0-3.3,0.5-6.3,1.5-9
					c1-2.7,2.5-5,4.3-7c1.8-1.9,4-3.4,6.6-4.5s5.4-1.6,8.5-1.6s5.9,0.5,8.5,1.6c2.6,1.1,4.8,2.6,6.6,4.5c1.8,1.9,3.3,4.3,4.3,7
					C614.7,97.2,615.2,100.2,615.2,103.5z M605.3,105.2v-1.8c0-1.9-0.2-3.6-0.7-5.3c-0.5-1.6-1.2-3.1-2.1-4.3
					c-0.9-1.2-2.1-2.1-3.5-2.8c-1.4-0.7-3-1-4.8-1s-3.4,0.3-4.8,1c-1.4,0.7-2.5,1.6-3.5,2.8c-0.9,1.2-1.6,2.6-2.1,4.3
					c-0.5,1.6-0.7,3.4-0.7,5.3v1.8c0,1.9,0.2,3.6,0.7,5.3c0.5,1.6,1.2,3.1,2.1,4.3c0.9,1.2,2.1,2.1,3.5,2.8c1.4,0.7,3,1,4.8,1
					s3.4-0.3,4.8-1c1.4-0.7,2.5-1.6,3.5-2.8c0.9-1.2,1.6-2.6,2.1-4.3C605.1,108.9,605.3,107.1,605.3,105.2z"/>
				<path class="st0" d="M621.2,69.5c0-1.9,0.6-3.4,1.7-4.5c1.1-1.1,2.6-1.7,4.5-1.7c1.9,0,3.4,0.6,4.5,1.7c1.1,1.1,1.7,2.6,1.7,4.5
					c0,1.9-0.6,3.4-1.7,4.5c-1.1,1.1-2.6,1.7-4.5,1.7c-1.9,0-3.4-0.6-4.5-1.7C621.7,72.9,621.2,71.4,621.2,69.5z M632.6,126.3h-10.6
					v-44h10.6V126.3z"/>
				<path class="st0" d="M639.1,105.2v-1.8c0-3.3,0.5-6.3,1.5-9c1-2.7,2.5-5,4.3-7c1.8-1.9,4.1-3.4,6.6-4.5c2.6-1.1,5.4-1.6,8.5-1.6
					c3.2,0,6,0.5,8.6,1.6c2.6,1.1,4.8,2.6,6.6,4.6l-6.8,6.8c-0.9-1.3-2.1-2.3-3.6-3c-1.4-0.7-3.1-1.1-5-1.1c-1.8,0-3.4,0.3-4.8,1
					c-1.4,0.7-2.5,1.6-3.5,2.8c-0.9,1.2-1.6,2.6-2.1,4.3c-0.5,1.6-0.7,3.4-0.7,5.3v1.1c0,1.9,0.2,3.6,0.7,5.3
					c0.5,1.6,1.2,3.1,2.2,4.3c1,1.2,2.2,2.1,3.6,2.8c1.4,0.7,3,1,4.8,1c1.8,0,3.4-0.3,4.8-0.9s2.7-1.6,3.7-2.9l6.6,6.5
					c-1.9,2-4.1,3.5-6.6,4.6c-2.6,1.1-5.4,1.6-8.6,1.6c-3.1,0-6-0.5-8.5-1.6c-2.6-1.1-4.8-2.6-6.6-4.5c-1.8-1.9-3.3-4.3-4.3-7
					C639.6,111.5,639.1,108.5,639.1,105.2z"/>
				<path class="st0" d="M700.6,127.2c-3.1,0-5.9-0.5-8.5-1.5c-2.6-1-4.8-2.5-6.6-4.4c-1.8-1.9-3.3-4.1-4.3-6.8
					c-1-2.7-1.5-5.6-1.5-8.9v-2.1c0-3.3,0.5-6.3,1.5-9c1-2.7,2.5-5,4.3-7c1.8-1.9,4-3.4,6.6-4.5c2.6-1.1,5.4-1.6,8.5-1.6
					c3.1,0,5.9,0.5,8.5,1.6s4.8,2.6,6.6,4.5c1.8,1.9,3.3,4.3,4.3,7c1,2.7,1.5,5.7,1.5,9v3.3h-32c0.2,3.5,1.3,6.4,3.2,8.5
					c1.9,2.2,4.5,3.3,7.9,3.3c2.1,0,4-0.4,5.9-1.2c1.8-0.8,3.4-1.9,4.6-3.2l7,5.9c-0.9,1.1-2,2.1-3.3,3s-2.7,1.6-4.3,2.2
					c-1.5,0.6-3.1,1.1-4.8,1.4C703.9,127.1,702.2,127.2,700.6,127.2z M689.9,99.6h21.3c-0.6-2.8-1.8-5.1-3.5-6.9
					c-1.8-1.8-4.1-2.6-7.1-2.6c-3,0-5.4,0.9-7.1,2.6C691.7,94.5,690.5,96.8,689.9,99.6z"/>
			</g>
		</g>
		<line class="st1" x1="168" y1="225.4" x2="736.6" y2="225.4"/>
		<g>
			<path class="st0" d="M249.9,252.5c2.8,0,5.3,0.4,7.6,1.3c2.3,0.9,4.2,2.1,5.9,3.7c1.6,1.6,2.9,3.5,3.8,5.7
				c0.9,2.2,1.4,4.7,1.5,7.3c0.1,1.1,0,2.2-0.2,3.3c-0.3,2.2-0.9,4.2-1.9,5.9c-1,1.7-2.2,3.2-3.6,4.5c-1.4,1.3-3,2.5-4.7,3.6
				c-1.7,1.1-3.4,2.2-5.1,3.2c-1.6,1.1-3.1,2.1-4.6,3.2c-1.5,1.1-2.8,2.2-4,3.4c-1.1,1.2-2.1,2.6-2.8,4.1c-0.7,1.5-1.1,3.2-1.1,5.1
				h27.9v8.3h-37.8V308c0-3,0.4-5.6,1.3-7.8s2.1-4.2,3.6-5.9c1.5-1.8,3.3-3.4,5.4-4.9c2.1-1.5,4.2-3,6.5-4.4c1.6-1.1,3.2-2.1,4.8-3
				c1.5-0.9,2.9-2,4-3c1.2-1.1,2.1-2.3,2.8-3.6c0.7-1.3,1.1-2.8,1.1-4.4c0-2.9-0.9-5.4-2.8-7.3c-1.9-1.9-4.4-2.9-7.6-2.9
				c-3.1,0-5.6,1-7.5,2.9c-1.9,1.9-2.9,4.5-2.9,7.7h-8.4c0-2.8,0.5-5.4,1.4-7.7c0.9-2.3,2.2-4.3,3.8-5.9c1.6-1.6,3.6-2.9,5.9-3.8
				C244.5,253,247.1,252.5,249.9,252.5z"/>
			<path class="st0" d="M275.6,290.7v-12.7c0-3.8,0.5-7.3,1.6-10.4c1.1-3.1,2.5-5.8,4.4-8.1c1.9-2.2,4.1-4,6.8-5.2
				c2.7-1.2,5.6-1.8,8.8-1.8c3.3,0,6.2,0.6,8.9,1.8c2.6,1.2,4.9,3,6.8,5.2c1.9,2.2,3.4,4.9,4.4,8.1c1,3.1,1.5,6.6,1.5,10.4v12.7
				c0,3.8-0.5,7.3-1.5,10.4c-1,3.1-2.5,5.8-4.4,8.1c-1.9,2.2-4.2,4-6.8,5.2c-2.6,1.2-5.6,1.8-8.9,1.8c-3.2,0-6.2-0.6-8.8-1.8
				c-2.7-1.2-4.9-3-6.8-5.2c-1.9-2.2-3.3-4.9-4.4-8.1C276.1,298,275.6,294.5,275.6,290.7z M310.1,290.7v-12.7c0-2.5-0.3-4.8-0.9-6.9
				c-0.6-2.1-1.5-3.8-2.6-5.3c-1.1-1.5-2.5-2.6-4-3.4s-3.3-1.2-5.3-1.2c-1.9,0-3.7,0.4-5.2,1.2c-1.6,0.8-2.9,1.9-4,3.4
				c-1.1,1.5-2,3.2-2.6,5.3c-0.6,2.1-0.9,4.3-0.9,6.9v12.7c0,2.5,0.3,4.8,0.9,6.9s1.5,3.8,2.6,5.3c1.1,1.5,2.5,2.6,4,3.4
				c1.6,0.8,3.3,1.2,5.2,1.2c1.9,0,3.7-0.4,5.3-1.2s2.9-1.9,4-3.4c1.1-1.5,2-3.2,2.6-5.3S310.1,293.3,310.1,290.7z"/>
			<path class="st0" d="M345,252.5c2.8,0,5.3,0.4,7.6,1.3c2.3,0.9,4.2,2.1,5.9,3.7c1.6,1.6,2.9,3.5,3.8,5.7c0.9,2.2,1.4,4.7,1.5,7.3
				c0.1,1.1,0,2.2-0.2,3.3c-0.3,2.2-0.9,4.2-1.9,5.9c-1,1.7-2.2,3.2-3.6,4.5c-1.4,1.3-3,2.5-4.7,3.6c-1.7,1.1-3.4,2.2-5.1,3.2
				c-1.6,1.1-3.1,2.1-4.6,3.2c-1.5,1.1-2.8,2.2-4,3.4c-1.1,1.2-2.1,2.6-2.8,4.1c-0.7,1.5-1.1,3.2-1.1,5.1h27.9v8.3h-37.8V308
				c0-3,0.4-5.6,1.3-7.8s2.1-4.2,3.6-5.9c1.5-1.8,3.3-3.4,5.4-4.9c2.1-1.5,4.2-3,6.5-4.4c1.6-1.1,3.2-2.1,4.8-3c1.5-0.9,2.9-2,4-3
				c1.2-1.1,2.1-2.3,2.8-3.6c0.7-1.3,1.1-2.8,1.1-4.4c0-2.9-0.9-5.4-2.8-7.3c-1.9-1.9-4.4-2.9-7.6-2.9c-3.1,0-5.6,1-7.5,2.9
				c-1.9,1.9-2.9,4.5-2.9,7.7h-8.4c0-2.8,0.5-5.4,1.4-7.7c0.9-2.3,2.2-4.3,3.8-5.9c1.6-1.6,3.6-2.9,5.9-3.8
				C339.6,253,342.1,252.5,345,252.5z"/>
			<path class="st0" d="M389.8,252.5c2.8,0,5.3,0.4,7.6,1.3c2.3,0.9,4.2,2.1,5.9,3.7c1.6,1.6,2.9,3.5,3.8,5.7
				c0.9,2.2,1.4,4.7,1.5,7.3c0.1,1.1,0,2.2-0.2,3.3c-0.3,2.2-0.9,4.2-1.9,5.9c-1,1.7-2.2,3.2-3.6,4.5c-1.4,1.3-3,2.5-4.7,3.6
				c-1.7,1.1-3.4,2.2-5.1,3.2c-1.6,1.1-3.1,2.1-4.6,3.2c-1.5,1.1-2.8,2.2-4,3.4c-1.1,1.2-2.1,2.6-2.8,4.1c-0.7,1.5-1.1,3.2-1.1,5.1
				h27.9v8.3h-37.8V308c0-3,0.4-5.6,1.3-7.8s2.1-4.2,3.6-5.9c1.5-1.8,3.3-3.4,5.4-4.9c2.1-1.5,4.2-3,6.5-4.4c1.6-1.1,3.2-2.1,4.8-3
				c1.5-0.9,2.9-2,4-3c1.2-1.1,2.1-2.3,2.8-3.6c0.7-1.3,1.1-2.8,1.1-4.4c0-2.9-0.9-5.4-2.8-7.3c-1.9-1.9-4.4-2.9-7.6-2.9
				c-3.1,0-5.6,1-7.5,2.9c-1.9,1.9-2.9,4.5-2.9,7.7H371c0-2.8,0.5-5.4,1.4-7.7c0.9-2.3,2.2-4.3,3.8-5.9c1.6-1.6,3.6-2.9,5.9-3.8
				C384.5,253,387,252.5,389.8,252.5z"/>
			<path class="st0" d="M450.6,299.4l-5.5,15.8h-9.3l21.5-61.6h12l21.5,61.6h-9.3l-5.5-15.8H450.6z M473,291.1l-9.7-28.1l-9.7,28.1
				H473z"/>
			<path class="st0" d="M518.2,271.2h11.3l8.6,33.2l8.6-33.2h8.4l-11.4,44h-11.3l-8.6-33.2l-8.6,33.2H504l-11.4-44h8.4l8.6,33.2
				L518.2,271.2z"/>
			<path class="st0" d="M597.3,284.7v30.4h-8.4v-4.8c-1.7,1.8-3.7,3.2-5.9,4.2c-2.2,1-4.7,1.5-7.5,1.5c-2.2,0-4.3-0.3-6.3-0.9
				c-2-0.6-3.7-1.5-5.1-2.6c-1.5-1.1-2.6-2.5-3.5-4.1c-0.9-1.6-1.3-3.5-1.3-5.6c0-2.3,0.5-4.3,1.4-5.9c0.9-1.6,2.2-2.9,3.7-4
				c1.5-1.1,3.2-1.9,5.1-2.5c1.9-0.6,3.8-1,5.7-1.3c1.9-0.3,3.8-0.5,5.5-0.5c1.8-0.1,3.3-0.1,4.5-0.1h3.7v-3.9c0-2-0.8-3.5-2.5-4.7
				c-1.7-1.1-3.9-1.7-6.7-1.7c-2.1,0-4,0.4-5.9,1.3c-1.8,0.9-3.4,2.1-4.8,3.6l-5.6-6c2-2,4.4-3.7,7.2-5c2.8-1.3,5.8-2,9-2
				c2.6,0,5.1,0.4,7.3,1.1s4.1,1.7,5.6,2.9c1.6,1.3,2.8,2.8,3.6,4.5C596.8,280.6,597.3,282.6,597.3,284.7z M588.6,295.3h-4.4
				c-1.8,0-3.6,0-5.5,0.1c-1.9,0.1-3.7,0.4-5.4,0.8c-1.7,0.4-3.1,1.1-4.1,2c-1.1,0.9-1.6,2.1-1.6,3.6c0,2.3,0.9,4,2.6,5.2
				c1.8,1.2,3.9,1.8,6.3,1.8c1.8,0,3.4-0.4,4.9-1.1c1.4-0.7,2.7-1.7,3.7-2.9c1-1.2,1.8-2.6,2.4-4.3
				C588.1,299,588.5,297.2,588.6,295.3z"/>
			<path class="st0" d="M605.5,315.2v-44h8.8v5.1c1.7-1.6,3.7-2.9,6-3.8c2.3-0.9,4.9-1.3,7.7-1.3v7.4c-1.9,0-3.7,0.3-5.4,0.9
				c-1.7,0.6-3.1,1.5-4.4,2.7c-1.2,1.2-2.2,2.6-2.9,4.3c-0.7,1.7-1.1,3.6-1.1,5.7v23.1H605.5z"/>
			<path class="st0" d="M664.5,276.3v-22.7h8.8v61.6h-8.8v-5.1c-1.7,1.9-3.7,3.3-6,4.4c-2.3,1.1-4.9,1.6-7.7,1.6
				c-2.9,0-5.5-0.5-7.9-1.6s-4.4-2.6-6.1-4.6c-1.7-2-3-4.4-4-7.2c-0.9-2.8-1.4-6-1.4-9.4c0-3.5,0.5-6.6,1.4-9.4
				c0.9-2.8,2.3-5.2,4-7.2c1.7-2,3.7-3.5,6.1-4.6c2.4-1.1,5-1.6,7.9-1.6c2.8,0,5.4,0.5,7.7,1.6C660.8,273,662.8,274.4,664.5,276.3z
				 M639.8,293.2c0,2.1,0.3,4,0.8,5.9c0.5,1.8,1.3,3.5,2.3,4.9c1,1.4,2.3,2.5,3.8,3.3c1.5,0.8,3.3,1.2,5.3,1.2c2,0,3.8-0.4,5.3-1.2
				c1.5-0.8,2.8-1.9,3.8-3.3c1-1.4,1.8-3,2.3-4.9c0.5-1.8,0.8-3.8,0.8-5.9c0-2.1-0.3-4-0.8-5.9c-0.5-1.8-1.3-3.5-2.3-4.9
				c-1-1.4-2.3-2.5-3.8-3.3c-1.5-0.8-3.3-1.2-5.3-1.2c-2,0-3.8,0.4-5.3,1.2c-1.5,0.8-2.8,1.9-3.8,3.3c-1,1.4-1.8,3-2.3,4.9
				C640.1,289.2,639.8,291.1,639.8,293.2z"/>
		</g>
	</g>
	<g>
		<g>
			<path class="st0" d="M255.3,381.8c0-5,0-10,0-15c-0.1-5.4,2.3-9.4,7-12.1c8.8-5,17.5-10.1,26.2-15.1c4.5-2.6,9.1-2.6,13.6,0
				c8.8,5.1,17.5,10.2,26.3,15.2c4.5,2.6,6.8,6.4,6.8,11.7c0,10.3,0,20.6,0,30.9c0,5.1-2.3,8.9-6.8,11.5
				c-8.8,5.1-17.7,10.2-26.5,15.3c-4.5,2.6-9,2.6-13.5,0c-8.8-5.1-17.7-10.2-26.5-15.3c-4.5-2.6-6.8-6.5-6.8-11.7
				C255.3,392.1,255.3,386.9,255.3,381.8z"/>
		</g>
		<g>
			<path class="st2" d="M318.7,395.3c-3.6-2.1-7.3-4.2-10.9-6.3c-1-0.6-2.2-0.6-3.2,0c-2.7,1.6-5.5,3.1-8.2,4.7
				c-0.5,0.4-1.1,0.5-1.7,0.3c-2.9-1.7-5.9-3.5-8.9-5.1c-1-0.4-1.5-1.4-1.4-2.5c0-3.2,0-6.4,0-9.6c-0.1-0.8,0.4-1.7,1.2-2
				c2.7-1.5,5.4-3.2,8.2-4.7c1.1-0.5,1.7-1.6,1.6-2.8c0-4.2,0-8.4,0-12.6c0-1.6-0.7-2-2-1.3c-3.6,2.1-7.3,4.2-10.9,6.3
				c-0.1,0-0.3,0.1-0.4,0.2c-3.5,2-7,4.1-10.5,6.1c-0.9,0.4-1.4,1.3-1.6,2.2c0,0,0,0.1,0,0.2c0,0,0,0.1,0,0.2c0,0,0,0.1,0,0.2
				c0,7.7,0,15.5,0,23.2c0,0.8,0,1.6,0,2.4c-0.1,1.2,0.6,2.3,1.6,2.8c7.4,4.3,14.8,8.5,22.2,12.8c0.7,0.5,1.6,0.6,2.5,0.4
				c0.3-0.1,0.6-0.2,0.9-0.4c3.5-2,7-4,10.5-6.1c0.1-0.1,0.2-0.1,0.4-0.2l10.9-6.3C320.1,396.9,320.1,396.1,318.7,395.3z"/>
		</g>
		<g>
			<g>
				<path class="st0" d="M385.7,384.8h7.4c-1.1,4.1-3.2,7.2-6.2,9.4c-3.1,2.2-6.9,3.3-11.5,3.3c-5.6,0-9.9-1.8-13.1-5.4
					c-3.2-3.5-4.7-8.6-4.7-15.1c0-6.3,1.5-11.1,4.5-14.7c3.1-3.6,7.5-5.4,13-5.4c5.9,0,10.4,1.8,13.6,5.3c1.8,2.2,3.1,4.7,3.8,7.5
					h-10.3c-0.4-0.8-0.9-1.5-1.5-2.2c-1.3-1.3-3.1-2-5.4-2c-1.9-0.1-3.9,0.6-5.3,2c-1.8,1.9-2.6,5.2-2.6,9.7c0,4.5,0.9,7.7,2.6,9.6
					c1.3,1.6,3.2,2.4,5.7,2.4c1.5,0,3-0.3,4.3-1c0.3-0.1,0.6-0.3,0.8-0.5l0.8-0.8c0.3-0.4,0.7-0.8,1.2-1.2
					C383.8,385.1,384.8,384.8,385.7,384.8z"/>
			</g>
			<g>
				<path class="st0" d="M394.6,396.8v-18.9c0-3.8,0.6-7,1.7-9.6c1-2.4,2.6-4.6,4.6-6.2c1.9-1.5,4.2-2.6,6.5-3.2
					c2.5-0.7,5.1-1,7.7-1h1.5v10.4h-3.4c-2.8,0-5,0.7-6.3,2c-1.3,1.3-2,3.5-2,6.4v20.1L394.6,396.8z"/>
			</g>
			<g>
				<path class="st0" d="M422.6,393.3c-2.1-1.9-3.7-4.4-4.4-7.1c-0.9-3-1.3-6.2-1.3-9.3c0-2.7,0.4-5.3,1.1-7.9
					c0.6-2.4,1.8-4.7,3.4-6.6c2.5-2.9,6-4.8,9.8-5.2c4-0.6,7.6-0.2,10.9,1c3.6,1.4,6.6,4.1,8.2,7.7c1.7,3.2,2.5,7,2.5,11.3
					c0,2.7-0.3,5.4-1,8.1c-0.6,2-1.5,3.9-2.6,5.7c-2.4,3.2-5.3,5.2-8.9,6c-3.2,0.9-6.5,1-9.7,0.2
					C427.1,396.3,424.5,395.1,422.6,393.3z M429.6,367.5c-2,2.3-3,5.6-2.8,10.1c0.2,4.5,1,7.6,2.5,9.3c0.6,0.8,1.6,1.4,3.1,1.9
					c1.4,0.6,3,0.6,4.5,0.1c1.5-0.5,2.9-1.5,4-3.3c1.2-1.8,1.8-4.6,1.9-8.5c0-3.5-0.6-6.2-1.7-7.9c-1.1-1.8-2.4-2.9-3.9-3.4
					c-1.4-0.5-3-0.5-4.4-0.1C431.6,366.1,430.5,366.7,429.6,367.5L429.6,367.5z"/>
			</g>
			<g>
				<path class="st0" d="M454.4,396.8v-7.8l21-23.2h-14.8c-1.3,0-2.6-0.5-3.5-1.4c-1-0.9-1.5-2.1-1.5-3.4v-3.2h32v8.4l-20.7,22.2
					h21.4v8.5L454.4,396.8z"/>
			</g>
			<g>
				<path class="st0" d="M515.7,346.3h5c1.3,0,2.6,0.6,3.5,1.5c0.9,0.9,1.4,2.1,1.5,3.4v28.6c0,7-2,11.6-6.1,14.1
					c-3.9,2.4-8.4,3.7-13,3.7c-2.6,0-5.1-0.4-7.5-1.3c-2.3-0.7-4.4-2.1-5.9-4c-2.8-3.6-4.3-8.5-4.3-14.8c0-6.2,1.4-11.1,4.3-14.8
					c2.9-3.8,6.7-5.7,11.3-5.7c2.2,0,4.5,0.5,6.4,1.5c1.9,1.1,3.6,2.7,4.8,4.5L515.7,346.3L515.7,346.3z M499,377
					c0,3.9,0.7,6.9,2.2,8.9c1.4,2,3.6,3.1,6.3,3.1c2.5,0.1,4.8-1.1,6.2-3.1c1.4-2,2-5.1,2-8.9c0-3.5-0.7-6.3-2.2-8.3
					c-1.5-1.9-3.8-3-6.3-2.9c-2.4-0.1-4.7,1.1-6,3.1C499.7,370.8,498.9,373.5,499,377L499,377z"/>
			</g>
			<g>
				<path class="st0" d="M554.5,384.8h7.4c-1.1,4.1-3.2,7.2-6.2,9.4c-3.1,2.2-6.9,3.3-11.5,3.3c-5.6,0-9.9-1.8-13-5.4
					c-3.2-3.5-4.7-8.6-4.7-15.1c0-6.3,1.5-11.1,4.5-14.7c3.1-3.6,7.5-5.4,13.1-5.4c5.9,0,10.4,1.8,13.6,5.3
					c3.1,3.6,4.7,8.7,4.7,15.1v1.6c0,0.4,0,0.7-0.1,1H537c0.1,3,0.8,5.3,2.2,6.7c1.3,1.6,3.2,2.4,5.7,2.4c1.5,0,3-0.3,4.3-1
					c0.3-0.1,0.6-0.3,0.8-0.5l0.8-0.8c0.3-0.5,0.6-0.9,1.1-1.2C552.6,385.1,553.6,384.8,554.5,384.8z M537,373.4h15
					c-0.2-2.6-0.9-4.6-2-5.9c-1.3-1.3-3.1-2-5.4-2c-1.9-0.1-3.9,0.6-5.3,2C537.8,368.9,537,370.8,537,373.4L537,373.4z"/>
			</g>
			<g>
				<path class="st0" d="M563.2,383.9h10c0.1,1.9,0.8,3.4,2.2,4.4c1.5,1,3.4,1.5,5.9,1.5c1.6,0,3.2-0.3,4.5-1.1
					c1.1-0.5,1.8-1.6,1.8-2.8c0-1.8-2-3.1-6.2-3.9c-1.3-0.2-2.6-0.5-3.9-0.9c-5.2-1.3-8.7-2.8-10.4-4.5c-1.9-1.8-2.9-4.1-2.9-7
					c0-3.6,1.5-7,4.2-9.2c2.9-2.2,6.8-3.4,11.5-3.4c5.1,0,9.1,1.1,12.2,3.4c2.8,2.4,4.5,5.8,4.5,9.6h-6.3c-1.8,0-3.4-0.9-4.3-2.5
					l-1.2-1.2c-1.2-0.9-2.8-1.3-4.8-1.3c-1.9,0-3.4,0.3-4.4,0.9c-0.9,0.6-1.4,1.6-1.3,2.6c0,1.6,2.6,2.9,7.7,3.9
					c0.5,0.2,1,0.3,1.5,0.5c0.4,0.1,0.8,0.1,1.3,0.1c5,1.3,8.4,2.7,10.4,4.4c1.9,1.8,2.8,4.1,2.8,7c0,4.3-1.6,7.7-4.7,10
					c-2.9,2.1-7.3,3.2-13.2,3.2c-5.6,0-9.7-1.1-12.5-3.4c-2.8-2.2-4.3-5.5-4.3-9.8L563.2,383.9z"/>
			</g>
			<g>
				<path class="st0" d="M609.7,357.8v14.4l12.5-14.4h12.3l-14,14.9l14.1,24.1h-12.3l-7.2-13.2c-1.5-2.6-2.7-3.8-3.8-3.4
					c-1.1,0.4-1.6,1-1.6,1.8v14.8h-10.2v-50.4h5.3c1.3,0,2.6,0.5,3.5,1.5c0.9,0.9,1.5,2.1,1.5,3.4L609.7,357.8z"/>
			</g>
			<g>
				<g>
					<path class="st0" d="M636.8,357.7v-6.2h-2.3v-0.6c0-0.4,0.4-0.8,0.8-0.8l0,0h5.2v1.3h-2.2v6.3L636.8,357.7L636.8,357.7z"/>
				</g>
				<g>
					<path class="st0" d="M640.9,357.7v-6.8c0-0.2,0.1-0.4,0.2-0.6s0.4-0.2,0.6-0.2h1.5l1.5,5.8l1.5-5.8h2.3v7.6h-1.4v-6.2l-1.5,6.1
						h-1.6l-1.6-6.1v6.1H640.9z"/>
				</g>
			</g>
			<g class="st3">
				<path class="st0" d="M373,419c0,1.9-0.4,3.4-1.3,4.5s-2.1,1.7-3.7,1.7c-0.8,0-1.5-0.1-2-0.5c-0.6-0.3-1.1-0.8-1.4-1.4l-0.2,1.6
					H362v-18.4h2.8v7h0c0.4-0.6,0.8-0.9,1.4-1.2c0.6-0.3,1.2-0.4,1.9-0.4c1.6,0,2.8,0.6,3.7,1.9c0.8,1.2,1.3,2.9,1.3,5L373,419
					L373,419z M370.2,418.7c0-1.3-0.2-2.5-0.6-3.2c-0.5-0.8-1.2-1.2-2.2-1.2c-0.6,0-1.2,0.1-1.6,0.4s-0.7,0.7-1,1.2v5.4
					c0.3,0.5,0.6,0.9,1,1.2s1,0.4,1.6,0.4c1,0,1.7-0.3,2.2-1c0.5-0.7,0.6-1.6,0.6-2.8V418.7z"/>
				<path class="st0" d="M383.4,423.2L383.4,423.2c-0.4,0.6-0.9,1.1-1.5,1.4c-0.6,0.3-1.3,0.5-2.1,0.5c-1.4,0-2.5-0.4-3.2-1.3
					c-0.7-0.8-1.1-2.2-1.1-4.1v-7.7h2.8v7.7c0,1.2,0.2,1.9,0.5,2.4c0.4,0.4,0.9,0.6,1.6,0.6c0.7,0,1.3-0.1,1.7-0.4
					c0.5-0.2,0.8-0.6,1.1-1.1v-9.2h2.8v12.8h-2.5L383.4,423.2z"/>
				<path class="st0" d="M396.2,421.5c0-0.5-0.2-0.8-0.6-1.1s-1.1-0.6-2.1-0.8c-1.5-0.3-2.7-0.8-3.5-1.4c-0.7-0.6-1.2-1.4-1.2-2.4
					c0-1.1,0.5-2,1.3-2.7c0.9-0.7,2.1-1.1,3.6-1.1c1.6,0,2.8,0.4,3.7,1.2c0.9,0.7,1.3,1.7,1.3,2.9H396c0-0.6-0.2-1-0.6-1.3
					c-0.4-0.4-0.9-0.6-1.7-0.6c-0.7,0-1.2,0.1-1.6,0.5c-0.4,0.3-0.5,0.7-0.5,1.2c0,0.5,0.2,0.8,0.5,1.1c0.3,0.3,1,0.5,2.1,0.7
					c1.6,0.3,2.8,0.8,3.6,1.4c0.7,0.6,1.1,1.4,1.1,2.5c0,1.2-0.5,2.1-1.4,2.8c-0.9,0.7-2.2,1.1-3.8,1.1c-1.7,0-3-0.4-3.9-1.3
					c-0.9-0.8-1.4-1.9-1.4-3h2.7c0,0.7,0.3,1.3,0.8,1.6c0.5,0.3,1.1,0.5,1.9,0.5c0.7,0,1.3-0.1,1.7-0.4
					C396,422.3,396.2,422,396.2,421.5z"/>
				<path class="st0" d="M404.6,409h-2.8v-2.5h2.8V409z M404.6,424.9h-2.8v-12.8h2.8V424.9z"/>
				<path class="st0" d="M410.3,412.1l0.2,1.8h0c0.4-0.6,0.9-1.2,1.5-1.5c0.6-0.4,1.3-0.5,2.1-0.5c1.3,0,2.4,0.4,3.1,1.2
					c0.7,0.8,1.1,2,1.1,3.8v8h-2.8v-8c0-1-0.2-1.7-0.6-2.1c-0.4-0.4-1-0.6-1.8-0.6c-0.6,0-1.1,0.1-1.5,0.4s-0.8,0.6-1.1,1v9.3h-2.8
					v-12.8L410.3,412.1L410.3,412.1z"/>
				<path class="st0" d="M426.7,425.2c-1.8,0-3.2-0.6-4.3-1.8c-1.1-1.2-1.6-2.7-1.6-4.6v-0.5c0-1.9,0.5-3.4,1.6-4.6
					c1-1.2,2.4-1.8,4-1.8c1.8,0,3.1,0.5,3.9,1.5s1.3,2.5,1.3,4.2v1.7h-8c0.1,1.1,0.4,1.9,0.9,2.6c0.6,0.6,1.3,1,2.3,1
					c0.8,0,1.4-0.1,1.9-0.3c0.6-0.2,1.1-0.5,1.6-0.8l0.8,1.9c-0.5,0.4-1.1,0.7-1.9,1C428.7,425,427.8,425.2,426.7,425.2z
					 M426.4,414.2c-0.7,0-1.3,0.3-1.8,0.8c-0.5,0.6-0.7,1.3-0.9,2.2h5.1V417c0-0.8-0.2-1.5-0.6-2
					C427.8,414.5,427.2,414.2,426.4,414.2z"/>
				<path class="st0" d="M441.1,421.5c0-0.5-0.2-0.8-0.6-1.1c-0.4-0.3-1.1-0.6-2.1-0.8c-1.5-0.3-2.7-0.8-3.5-1.4
					c-0.7-0.6-1.2-1.4-1.2-2.4c0-1.1,0.5-2,1.3-2.7c0.9-0.7,2.1-1.1,3.6-1.1c1.6,0,2.8,0.4,3.7,1.2c0.9,0.7,1.3,1.7,1.3,2.9h-2.8
					c0-0.6-0.2-1-0.6-1.3c-0.4-0.4-0.9-0.6-1.7-0.6c-0.7,0-1.2,0.1-1.6,0.5c-0.4,0.3-0.5,0.7-0.5,1.2c0,0.5,0.2,0.8,0.5,1.1
					c0.3,0.3,1,0.5,2.1,0.7c1.6,0.3,2.8,0.8,3.6,1.4c0.7,0.6,1.1,1.4,1.1,2.5c0,1.2-0.5,2.1-1.4,2.8c-0.9,0.7-2.2,1.1-3.8,1.1
					c-1.7,0-3-0.4-3.9-1.3c-0.9-0.8-1.4-1.9-1.4-3h2.7c0,0.7,0.3,1.3,0.8,1.6c0.5,0.3,1.1,0.5,1.9,0.5c0.7,0,1.3-0.1,1.7-0.4
					C440.9,422.3,441.1,422,441.1,421.5z"/>
				<path class="st0" d="M453.5,421.5c0-0.5-0.2-0.8-0.6-1.1s-1.1-0.6-2.1-0.8c-1.5-0.3-2.7-0.8-3.5-1.4c-0.7-0.6-1.2-1.4-1.2-2.4
					c0-1.1,0.5-2,1.3-2.7c0.9-0.7,2.1-1.1,3.6-1.1c1.6,0,2.8,0.4,3.7,1.2c0.9,0.7,1.3,1.7,1.3,2.9h-2.8c0-0.6-0.2-1-0.6-1.3
					c-0.4-0.4-0.9-0.6-1.7-0.6c-0.7,0-1.2,0.1-1.6,0.5c-0.4,0.3-0.5,0.7-0.5,1.2c0,0.5,0.2,0.8,0.5,1.1c0.3,0.3,1,0.5,2.1,0.7
					c1.6,0.3,2.8,0.8,3.6,1.4c0.7,0.6,1.1,1.4,1.1,2.5c0,1.2-0.5,2.1-1.4,2.8s-2.2,1.1-3.8,1.1c-1.7,0-3-0.4-3.9-1.3
					c-0.9-0.8-1.4-1.9-1.4-3h2.7c0,0.7,0.3,1.3,0.8,1.6s1.1,0.5,1.9,0.5c0.7,0,1.3-0.1,1.7-0.4C453.3,422.3,453.5,422,453.5,421.5z"
					/>
				<path class="st0" d="M471.9,421.5c0-0.5-0.2-0.8-0.6-1.1s-1.1-0.6-2.1-0.8c-1.5-0.3-2.7-0.8-3.5-1.4c-0.7-0.6-1.2-1.4-1.2-2.4
					c0-1.1,0.5-2,1.3-2.7c0.9-0.7,2.1-1.1,3.6-1.1c1.6,0,2.8,0.4,3.7,1.2c0.9,0.7,1.3,1.7,1.3,2.9h-2.8c0-0.6-0.2-1-0.6-1.3
					c-0.4-0.4-0.9-0.6-1.7-0.6c-0.7,0-1.2,0.1-1.6,0.5c-0.4,0.3-0.5,0.7-0.5,1.2c0,0.5,0.2,0.8,0.5,1.1c0.3,0.3,1,0.5,2.1,0.7
					c1.6,0.3,2.8,0.8,3.6,1.4c0.7,0.6,1.1,1.4,1.1,2.5c0,1.2-0.5,2.1-1.4,2.8s-2.2,1.1-3.8,1.1c-1.7,0-3-0.4-3.9-1.3
					c-0.9-0.8-1.4-1.9-1.4-3h2.7c0,0.7,0.3,1.3,0.8,1.6s1.1,0.5,1.9,0.5c0.7,0,1.3-0.1,1.7-0.4C471.8,422.3,471.9,422,471.9,421.5z"
					/>
				<path class="st0" d="M476.8,418.4c0-1.9,0.5-3.5,1.5-4.7s2.5-1.8,4.3-1.8c1.9,0,3.3,0.6,4.3,1.8s1.5,2.8,1.5,4.7v0.2
					c0,1.9-0.5,3.5-1.5,4.7c-1,1.2-2.5,1.8-4.3,1.8c-1.9,0-3.3-0.6-4.3-1.8c-1-1.2-1.5-2.8-1.5-4.7V418.4z M479.6,418.7
					c0,1.3,0.2,2.3,0.7,3.1c0.5,0.7,1.2,1.2,2.3,1.2c1,0,1.8-0.4,2.2-1.2c0.5-0.8,0.7-1.8,0.7-3.1v-0.2c0-1.3-0.2-2.3-0.7-3
					c-0.5-0.7-1.3-1.2-2.3-1.2c-1,0-1.8,0.4-2.2,1.2c-0.5,0.8-0.7,1.8-0.7,3V418.7z"/>
				<path class="st0" d="M491.9,424.9v-10.7h-1.9v-2.1h1.9v-1.5c0-1.4,0.4-2.5,1.1-3.3c0.7-0.7,1.8-1.1,3.2-1.1c0.3,0,0.6,0,0.8,0
					c0.3,0,0.6,0.1,0.9,0.2l-0.3,2.2c-0.2,0-0.4,0-0.5-0.1c-0.2,0-0.4,0-0.6,0c-0.6,0-1.1,0.2-1.4,0.5c-0.3,0.3-0.5,0.9-0.5,1.5v1.5
					h2.6v2.1h-2.6v10.7L491.9,424.9L491.9,424.9z"/>
				<path class="st0" d="M502.6,409v3.1h2.3v2.1h-2.3v7c0,0.6,0.1,0.9,0.3,1.1c0.2,0.2,0.5,0.3,0.8,0.3c0.2,0,0.4,0,0.6,0
					s0.3,0,0.5-0.1l0.3,2.1c-0.3,0.1-0.6,0.2-0.9,0.3c-0.4,0.1-0.7,0.1-1.1,0.1c-1,0-1.8-0.3-2.4-0.9c-0.6-0.6-0.8-1.6-0.8-2.9v-7
					h-1.8v-2.1h1.8v-3.1L502.6,409L502.6,409z"/>
				<path class="st0" d="M510.7,420.5l0.1,0.8h0l0.1-0.8l2.5-8.4h2.1l2.5,8.4l0.2,1h0l0.2-1.1l1.9-8.3h2.7l-3.5,12.8h-2.3l-2.4-7.9
					l-0.3-1.2h0l-0.3,1.2l-2.4,7.9h-2.3l-3.5-12.8h2.7L510.7,420.5z"/>
				<path class="st0" d="M532.6,424.9c-0.1-0.3-0.1-0.6-0.2-0.8c0-0.3-0.1-0.6-0.1-0.8c-0.4,0.6-0.9,1-1.6,1.3
					c-0.6,0.3-1.3,0.5-2,0.5c-1.3,0-2.3-0.3-3-1c-0.7-0.7-1.1-1.6-1.1-2.8c0-1.3,0.5-2.2,1.4-2.9c1-0.7,2.3-1,4.1-1h2.1v-1.1
					c0-0.7-0.2-1.2-0.6-1.6c-0.4-0.4-1-0.6-1.7-0.6c-0.7,0-1.2,0.1-1.6,0.5c-0.4,0.3-0.6,0.7-0.6,1.2h-2.8c0-1.1,0.5-2,1.4-2.8
					c1-0.8,2.2-1.2,3.8-1.2c1.5,0,2.7,0.4,3.6,1.1c0.9,0.7,1.3,1.9,1.3,3.3v5.7c0,0.6,0,1.1,0.1,1.5c0,0.5,0.2,0.9,0.3,1.4
					L532.6,424.9L532.6,424.9z M529.3,422.9c0.6,0,1.3-0.1,1.8-0.4c0.5-0.3,0.9-0.6,1.2-1.1v-2.2H530c-0.8,0-1.5,0.2-1.9,0.6
					c-0.5,0.4-0.7,0.9-0.7,1.5c0,0.5,0.1,0.9,0.5,1.2C528.2,422.7,528.7,422.9,529.3,422.9z"/>
				<path class="st0" d="M544.5,414.8l-1.3,0c-0.6,0-1,0.1-1.4,0.3c-0.4,0.2-0.6,0.6-0.8,1v8.9h-2.8v-12.8h2.6l0.2,1.8h0
					c0.3-0.6,0.7-1.1,1.2-1.5c0.5-0.4,1.1-0.6,1.7-0.6c0.2,0,0.4,0,0.6,0c0.2,0,0.3,0,0.5,0.1L544.5,414.8z"/>
				<path class="st0" d="M551.8,425.2c-1.8,0-3.2-0.6-4.3-1.8c-1.1-1.2-1.6-2.7-1.6-4.6v-0.5c0-1.9,0.5-3.4,1.6-4.6
					c1.1-1.2,2.4-1.8,4-1.8c1.8,0,3.1,0.5,3.9,1.5s1.3,2.5,1.3,4.2v1.7h-8c0.1,1.1,0.4,1.9,0.9,2.6c0.6,0.6,1.3,1,2.3,1
					c0.8,0,1.4-0.1,1.9-0.3c0.6-0.2,1.1-0.5,1.6-0.8l0.8,1.9c-0.5,0.4-1.1,0.7-1.9,1C553.7,425,552.8,425.2,551.8,425.2z
					 M551.4,414.2c-0.7,0-1.3,0.3-1.8,0.8c-0.5,0.6-0.7,1.3-0.9,2.2h5.1V417c0-0.8-0.2-1.5-0.6-2
					C552.9,414.5,552.3,414.2,551.4,414.2z"/>
				<path class="st0" d="M572.1,421.5c0-0.5-0.2-0.8-0.6-1.1s-1.1-0.6-2.1-0.8c-1.5-0.3-2.7-0.8-3.5-1.4c-0.7-0.6-1.2-1.4-1.2-2.4
					c0-1.1,0.5-2,1.3-2.7c0.9-0.7,2.1-1.1,3.6-1.1c1.6,0,2.8,0.4,3.7,1.2c0.9,0.7,1.3,1.7,1.3,2.9H572c0-0.6-0.2-1-0.6-1.3
					c-0.4-0.4-0.9-0.6-1.7-0.6c-0.7,0-1.2,0.1-1.6,0.5s-0.5,0.7-0.5,1.2c0,0.5,0.2,0.8,0.5,1.1c0.3,0.3,1,0.5,2.1,0.7
					c1.6,0.3,2.8,0.8,3.6,1.4s1.1,1.4,1.1,2.5c0,1.2-0.5,2.1-1.4,2.8c-0.9,0.7-2.2,1.1-3.8,1.1c-1.7,0-3-0.4-3.9-1.3
					c-0.9-0.8-1.4-1.9-1.4-3h2.7c0,0.7,0.3,1.3,0.8,1.6s1.1,0.5,1.9,0.5c0.7,0,1.3-0.1,1.7-0.4C571.9,422.3,572.1,422,572.1,421.5z"
					/>
				<path class="st0" d="M582.9,425.2c-1.8,0-3.2-0.6-4.3-1.8c-1.1-1.2-1.6-2.7-1.6-4.6v-0.5c0-1.9,0.5-3.4,1.6-4.6
					c1.1-1.2,2.4-1.8,4-1.8c1.8,0,3.1,0.5,3.9,1.5s1.3,2.5,1.3,4.2v1.7h-8c0.1,1.1,0.4,1.9,0.9,2.6c0.6,0.6,1.3,1,2.3,1
					c0.8,0,1.4-0.1,2-0.3c0.6-0.2,1.1-0.5,1.6-0.8l0.8,1.9c-0.5,0.4-1.1,0.7-1.9,1C584.8,425,583.9,425.2,582.9,425.2z M582.5,414.2
					c-0.7,0-1.3,0.3-1.8,0.8c-0.5,0.6-0.7,1.3-0.9,2.2h5.1V417c0-0.8-0.2-1.5-0.6-2C584,414.5,583.4,414.2,582.5,414.2z"/>
				<path class="st0" d="M597.7,424.9c-0.1-0.3-0.1-0.6-0.2-0.8c0-0.3-0.1-0.6-0.1-0.8c-0.4,0.6-0.9,1-1.6,1.3
					c-0.6,0.3-1.3,0.5-2,0.5c-1.3,0-2.3-0.3-3-1c-0.7-0.7-1.1-1.6-1.1-2.8c0-1.3,0.5-2.2,1.4-2.9c1-0.7,2.3-1,4.1-1h2.1v-1.1
					c0-0.7-0.2-1.2-0.6-1.6c-0.4-0.4-1-0.6-1.7-0.6c-0.7,0-1.2,0.1-1.6,0.5c-0.4,0.3-0.6,0.7-0.6,1.2H590c0-1.1,0.5-2,1.4-2.8
					c1-0.8,2.2-1.2,3.8-1.2c1.5,0,2.7,0.4,3.6,1.1c0.9,0.7,1.3,1.9,1.3,3.3v5.7c0,0.6,0,1.1,0.1,1.5c0,0.5,0.2,0.9,0.3,1.4
					L597.7,424.9L597.7,424.9z M594.4,422.9c0.6,0,1.3-0.1,1.8-0.4c0.5-0.3,0.9-0.6,1.2-1.1v-2.2h-2.1c-0.8,0-1.5,0.2-1.9,0.6
					c-0.5,0.4-0.7,0.9-0.7,1.5c0,0.5,0.1,0.9,0.5,1.2C593.3,422.7,593.8,422.9,594.4,422.9z"/>
				<path class="st0" d="M609.6,414.8l-1.3,0c-0.6,0-1,0.1-1.4,0.3c-0.4,0.2-0.6,0.6-0.8,1v8.9h-2.8v-12.8h2.6l0.2,1.8h0
					c0.3-0.6,0.7-1.1,1.2-1.5c0.5-0.4,1.1-0.6,1.7-0.6c0.2,0,0.4,0,0.6,0c0.2,0,0.3,0,0.5,0.1L609.6,414.8z"/>
				<path class="st0" d="M616.7,422.9c0.7,0,1.3-0.2,1.8-0.6c0.5-0.4,0.7-0.9,0.7-1.6h2.7c0,1.3-0.5,2.3-1.5,3.2
					c-1,0.9-2.2,1.3-3.7,1.3c-1.9,0-3.3-0.6-4.3-1.8c-1-1.2-1.4-2.7-1.4-4.6v-0.4c0-1.9,0.5-3.4,1.4-4.6c1-1.2,2.4-1.8,4.3-1.8
					c1.5,0,2.8,0.5,3.8,1.3c0.9,0.9,1.4,2,1.4,3.5h-2.7c0-0.7-0.2-1.3-0.7-1.8c-0.5-0.5-1.1-0.7-1.8-0.7c-1.1,0-1.9,0.4-2.3,1.2
					s-0.6,1.8-0.6,3v0.4c0,1.3,0.2,2.2,0.6,3C614.8,422.5,615.6,422.9,616.7,422.9z"/>
				<path class="st0" d="M626.9,413.8L626.9,413.8c0.5-0.6,0.9-1,1.5-1.3c0.6-0.3,1.3-0.5,2-0.5c1.4,0,2.4,0.4,3.2,1.3
					c0.7,0.8,1.1,2.2,1.1,4v7.8h-2.8v-7.8c0-1-0.2-1.8-0.6-2.2c-0.4-0.5-1-0.6-1.8-0.6c-0.6,0-1.1,0.1-1.5,0.3
					c-0.4,0.2-0.8,0.6-1.1,1v9.4H624v-18.4h2.8V413.8z"/>
			</g>
		</g>
	</g>
</g>
</svg>
