<?xml version="1.0" encoding="utf-8"?>
<!-- Generator: Adobe Illustrator 26.2.1, SVG Export Plug-In . SVG Version: 6.00 Build 0)  -->
<svg version="1.1" id="Layer_1" xmlns="http://www.w3.org/2000/svg" xmlns:xlink="http://www.w3.org/1999/xlink" x="0px" y="0px"
	 viewBox="0 0 903.8 426.2" style="enable-background:new 0 0 903.8 426.2;" xml:space="preserve">
<style type="text/css">
	.st0{fill:#798CA5;}
	.st1{fill:none;stroke:#BEC8DA;stroke-width:4;stroke-miterlimit:10;}
</style>
<g>
	<g>
		<path class="st0" d="M759.1,415.5c-9.4-0.5-19.6-2.2-29.5-5.7c-6.5-2.3-13.2-4.4-19.7-6.7c-0.7-0.2-1.2-0.9-1.9-1.3
			c0.5-0.5,1-1.1,1.6-1.6c3.4-3,7-5.7,10.1-9c5.8-6.3,10.5-13.5,14.7-21c3.5-6.2,7-12.4,11.2-18.2c4.3-6,9.2-11.7,14.3-17.1
			c3.7-3.9,8.2-7.2,12.4-10.6c0.9-0.7,4.1-2,4.7-2.1c0.1,0.6-3,11.8-4.5,16.9c-2.4,8.2-4.5,16.4-7.2,24.5c-3.1,9-6.7,17.8-10.1,26.8
			c-0.2,0.6-0.3,1.2-0.5,1.8c0.7,0.1,1.4,0.4,2.1,0.3c8.3-1.4,16.6-2.9,24.9-4.5c8.8-1.7,17.7-3.3,26.5-5.3c9.6-2.2,19-4.9,28.6-7.3
			c0.8-0.2,2.1-0.1,2.5,0.4c0.5,0.7,0.7,2,0.3,2.8c-4.4,10-11,18.1-20.4,23.9c-8.6,5.4-18.1,8.2-28.1,9.9
			C780.8,414,770.6,415.3,759.1,415.5z"/>
		<path class="st0" d="M812.1,324c-0.1,5.3-1.6,12-2,17.3c-0.2,2.3,0.3,2.7,2.5,1.7c4.7-2.1,9.5-4.1,14.1-6.5
			c8.1-4.2,16.4-8.3,24.2-13.1c7.3-4.4,14.1-9.4,21-14.3c2.8-2,8.9-7.3,9.5-7.5c0.2,0.5-0.7,17.5-4.9,24.4
			c-3.3,5.4-7.5,10.5-11.8,15.2c-3.7,4.1-8,7.7-12.4,11.1c-6.2,4.9-13.1,8.7-20.4,11.9c-6.7,2.9-13.6,5.3-20.8,6.6
			c-3,0.5-6,0.9-9,1.2c-6.4,0.7-12.8,1.4-19.2,2.1c-1.2,0.1-2.5,0.2-3.7,0.1c-0.7-0.1-1.1-0.4-0.8-1.7c1.9-7,3.8-14,5.4-21.1
			c1.2-5.2,2.1-10.4,3.1-15.6c1.4-7.2,2.8-14.4,4.4-21.5c2.1-9.7,3.8-19.6,8.4-28.7c2.1-4.3,4.9-8.1,8.4-11.4c0.5-0.4,1.3-0.6,2-0.7
			C810.4,273.7,812.3,315.8,812.1,324z"/>
		<path class="st0" d="M847.7,280.9c0.6-0.4,1-0.7,1.3-1c5.7-5.3,11.6-10.5,17.2-16c5.6-5.5,11-11.2,16.2-17
			c4.8-5.3,9.2-10.8,13.8-16.2c1.4-1.6,5.1-5.9,5.6-6.3c0.3,0.6,6.8,15.7-6,41.2c-3.7,6.6-8.3,12.7-13.1,18.6
			c-6.7,8.2-14.7,14.7-23,21.1c-7.2,5.6-15,10.3-23.1,14.5c-2.2,1.1-4.4,2.1-6.7,3c-2,0.9-2.5,0.5-2.4-1.7c0.2-5.5,0.6-11,0.6-16.5
			c0.1-9.9-0.9-19.7-2.1-29.5c-1.1-9-1.8-18-1.8-27.1c0-8,0.9-16,4-23.5c0.9-2.1,4-7.1,4.7-7.6c0.4,0.6,4.3,22.3,7.3,29.1
			c2.1,9.4,4.1,18.8,6.1,28.2C846.9,276.3,847.2,278.4,847.7,280.9z"/>
		<path class="st0" d="M855.1,257c-1.1-6.2-1.9-11.9-3.1-17.5c-0.8-3.7-1.9-7.3-3.1-10.9c-3.1-8.8-14.3-39.7-16.6-46.4
			c-1.9-5.7-1-19.2-0.1-19.4c1-0.3,14.9,15.7,17.8,20.6c3.2,5.4,5.8,11.1,8.5,16.8c1.7,3.5,3,7.2,4.5,10.9c0.6,1.5,0.9,3,1.6,5.2
			c1.6-3.3,3.1-6,4.3-8.8c3.2-6.9,7.5-13.1,11.8-19.3c5-7.2,9-15.1,12.5-23.2c1.2-2.7,5-9.4,5.8-9.5c0.4-0.1,5.8,16.4,2,37.1
			c-1.5,8.5-3.6,16.9-8.7,24.1c-4.4,6.2-9.2,12.1-14.3,17.8c-5.6,6.2-11.7,11.9-17.6,17.9c-1.1,1.1-2,2.4-3.1,3.5
			C856.6,256.2,855.8,256.5,855.1,257z"/>
		<path class="st0" d="M876.5,79.5c1.6-0.8,15.7,21.5,15.9,47.3c0.1,18.7-24.3,61.8-25.1,62.9c-1.8-2.9-3.4-5.5-5-8.2
			c-3.9-6.5-7.5-13.2-11.8-19.3c-4.6-6.5-10.1-12.4-15-18.7c-4.2-5.4-7-11.7-9.2-18.2c-1.5-4.6-2.7-9.4-3.9-14.1
			c-0.3-1-0.2-2-0.3-3.7c1.1,0.5,2,0.6,2.6,1.1c8.7,7.8,17.5,15.6,26.1,23.5c3.8,3.5,7.3,7.2,10.9,10.9c1.1,1.1,1.9,2.4,3,3.9
			C870.9,124.6,876.4,102.5,876.5,79.5z"/>
		<path class="st0" d="M840.8,78.4c0.2-0.4,0.4-0.6,0.4-0.9c0.2-7.3,0.3-14.7,0.4-22c0.1-9.9-2.4-19.4-5.4-28.7
			c-1.4-4.2-3.1-8.3-4.7-12.5c2.8-0.9,24.9,10.3,31.8,42.6c4.4,20.3-4,61.9-4.4,63.5c-2.8-2.2-5.3-4.2-7.8-6.1
			c-6-4.8-12.1-9.5-18.1-14.3c-5.7-4.5-11.3-9-17-13.6c-2.3-1.9-4.6-3.7-6.6-5.8c-4.2-4.4-6-9.9-6.7-15.8c-0.2-1.9-0.1-7.7,0.4-8
			c0.5-0.3,6.6,3.7,8.9,5c4.1,2.4,9.5,4.5,13.8,6.4c5.5,2.5,9.3,5.8,13.9,9.7C840,78.1,840.4,78.2,840.8,78.4z"/>
		<path class="st0" d="M831,59.2c-31.3-5.7-49.6-58.8-49.4-59.1c0.3-0.4,12.2,0.7,21.4,6.9C829.9,25,831.4,57.8,831,59.2z"/>
	</g>
	<g>
		<path class="st0" d="M144.6,415.5c9.4-0.5,19.6-2.2,29.5-5.7c6.5-2.3,13.2-4.4,19.7-6.7c0.7-0.2,1.2-0.9,1.9-1.3
			c-0.5-0.5-1-1.1-1.6-1.6c-3.4-3-7-5.7-10.1-9c-5.8-6.3-10.5-13.5-14.7-21c-3.5-6.2-7-12.4-11.2-18.2c-4.3-6-9.2-11.7-14.3-17.1
			c-3.7-3.9-8.2-7.2-12.4-10.6c-0.9-0.7-4.1-2-4.7-2.1c-0.1,0.6,3,11.8,4.5,16.9c2.4,8.2,4.5,16.4,7.2,24.5
			c3.1,9,6.7,17.8,10.1,26.8c0.2,0.6,0.3,1.2,0.5,1.8c-0.7,0.1-1.4,0.4-2.1,0.3c-8.3-1.4-16.6-2.9-24.9-4.5
			c-8.8-1.7-17.7-3.3-26.5-5.3c-9.6-2.2-19-4.9-28.6-7.3c-0.8-0.2-2.1-0.1-2.5,0.4c-0.5,0.7-0.7,2-0.3,2.8c4.4,10,11,18.1,20.4,23.9
			c8.6,5.4,18.1,8.2,28.1,9.9C123,414,133.2,415.3,144.6,415.5z"/>
		<path class="st0" d="M91.7,324c0.1,5.3,1.6,12,2,17.3c0.2,2.3-0.3,2.7-2.5,1.7c-4.7-2.1-9.5-4.1-14.1-6.5
			c-8.1-4.2-16.4-8.3-24.2-13.1c-7.3-4.4-14.1-9.4-21-14.3c-2.8-2-8.9-7.3-9.5-7.5c-0.2,0.5,0.7,17.5,4.9,24.4
			c3.3,5.4,7.5,10.5,11.8,15.2c3.7,4.1,8,7.7,12.4,11.1c6.2,4.9,13.1,8.7,20.4,11.9c6.7,2.9,13.6,5.3,20.8,6.6c3,0.5,6,0.9,9,1.2
			c6.4,0.7,12.8,1.4,19.2,2.1c1.2,0.1,2.5,0.2,3.7,0.1c0.7-0.1,1.1-0.4,0.8-1.7c-1.9-7-3.8-14-5.4-21.1c-1.2-5.2-2.1-10.4-3.1-15.6
			c-1.4-7.2-2.8-14.4-4.4-21.5c-2.1-9.7-3.8-19.6-8.4-28.7c-2.1-4.3-4.9-8.1-8.4-11.4c-0.5-0.4-1.3-0.6-2-0.7
			C93.4,273.7,91.4,315.8,91.7,324z"/>
		<path class="st0" d="M56.1,280.9c-0.6-0.4-1-0.7-1.3-1c-5.7-5.3-11.6-10.5-17.2-16c-5.6-5.5-11-11.2-16.2-17
			c-4.8-5.3-9.2-10.8-13.8-16.2c-1.4-1.6-5.1-5.9-5.6-6.3c-0.3,0.6-6.8,15.7,6,41.2c3.7,6.6,8.3,12.7,13.1,18.6
			c6.7,8.2,14.7,14.7,23,21.1c7.2,5.6,15,10.3,23.1,14.5c2.2,1.1,4.4,2.1,6.7,3c2,0.9,2.5,0.5,2.4-1.7c-0.2-5.5-0.6-11-0.6-16.5
			c-0.1-9.9,0.9-19.7,2.1-29.5c1.1-9,1.8-18,1.8-27.1c0-8-0.9-16-4-23.5c-0.9-2.1-4-7.1-4.7-7.6c-0.4,0.6-4.3,22.3-7.3,29.1
			c-2.1,9.4-4.1,18.8-6.1,28.2C56.9,276.3,56.5,278.4,56.1,280.9z"/>
		<path class="st0" d="M48.7,257c1.1-6.2,1.9-11.9,3.1-17.5c0.8-3.7,1.9-7.3,3.1-10.9c3.1-8.8,14.3-39.7,16.6-46.4
			c1.9-5.7,1-19.2,0.1-19.4c-1-0.3-14.9,15.7-17.8,20.6c-3.2,5.4-5.8,11.1-8.5,16.8c-1.7,3.5-3,7.2-4.5,10.9c-0.6,1.5-0.9,3-1.6,5.2
			c-1.6-3.3-3.1-6-4.3-8.8c-3.2-6.9-7.5-13.1-11.8-19.3c-5-7.2-9-15.1-12.5-23.2c-1.2-2.7-5-9.4-5.8-9.5c-0.4-0.1-5.8,16.4-2,37.1
			c1.5,8.5,3.6,16.9,8.7,24.1c4.4,6.2,9.2,12.1,14.3,17.8c5.6,6.2,11.7,11.9,17.6,17.9c1.1,1.1,2,2.4,3.1,3.5
			C47.2,256.2,47.9,256.5,48.7,257z"/>
		<path class="st0" d="M27.3,79.5c-1.6-0.8-15.7,21.5-15.9,47.3c-0.1,18.7,24.3,61.8,25.1,62.9c1.8-2.9,3.4-5.5,5-8.2
			c3.9-6.5,7.5-13.2,11.8-19.3c4.6-6.5,10.1-12.4,15-18.7c4.2-5.4,7-11.7,9.2-18.2c1.5-4.6,2.7-9.4,3.9-14.1c0.3-1,0.2-2,0.3-3.7
			c-1.1,0.5-2,0.6-2.6,1.1c-8.7,7.8-17.5,15.6-26.1,23.5c-3.8,3.5-7.3,7.2-10.9,10.9c-1.1,1.1-1.9,2.4-3,3.9
			C32.9,124.6,27.4,102.5,27.3,79.5z"/>
		<path class="st0" d="M62.9,78.4c-0.2-0.4-0.4-0.6-0.4-0.9c-0.2-7.3-0.3-14.7-0.4-22c-0.1-9.9,2.4-19.4,5.4-28.7
			c1.4-4.2,3.1-8.3,4.7-12.5c-2.8-0.9-24.9,10.3-31.8,42.6c-4.4,20.3,4,61.9,4.4,63.5c2.8-2.2,5.3-4.2,7.8-6.1
			c6-4.8,12.1-9.5,18.1-14.3c5.7-4.5,11.3-9,17-13.6c2.3-1.9,4.6-3.7,6.6-5.8c4.2-4.4,6-9.9,6.7-15.8c0.2-1.9,0.1-7.7-0.4-8
			c-0.5-0.3-6.6,3.7-8.9,5c-4.1,2.4-9.5,4.5-13.8,6.4c-5.5,2.5-9.3,5.8-13.9,9.7C63.7,78.1,63.4,78.2,62.9,78.4z"/>
		<path class="st0" d="M72.8,59.2c31.3-5.7,49.6-58.8,49.4-59.1c-0.3-0.4-12.2,0.7-21.4,6.9C73.8,25,72.4,57.8,72.8,59.2z"/>
	</g>
	<g>
		<g>
			<path class="st0" d="M314.8,82.3h-42.9V20.7h42.9v9.9h-32.4v16h27.1v9.9h-27.1v16h32.4V82.3z"/>
			<path class="st0" d="M359.8,52.3v30.1H350v-4c-1.6,1.5-3.5,2.7-5.6,3.6s-4.5,1.3-7.1,1.3c-5,0-9.1-1.2-12-3.6
				c-3-2.4-4.4-5.6-4.4-9.6c0-2.3,0.5-4.2,1.4-5.9c0.9-1.6,2.2-2.9,3.7-4c1.5-1.1,3.2-1.9,5.1-2.5c1.9-0.6,3.8-1.1,5.8-1.4
				c1.9-0.3,3.8-0.5,5.6-0.6c1.8-0.1,3.3-0.1,4.5-0.1h3.1v-3.3c0-1.8-0.8-3.1-2.3-4.1c-1.6-1-3.6-1.5-6.1-1.5
				c-1.8,0-3.6,0.4-5.5,1.1c-1.8,0.8-3.4,1.9-4.8,3.4l-6.4-6.7c1.9-2,4.4-3.7,7.3-5c2.9-1.3,6-2,9.2-2c2.8,0,5.3,0.4,7.6,1.1
				s4.2,1.7,5.9,3c1.6,1.3,2.9,2.8,3.7,4.7C359.4,48,359.8,50,359.8,52.3z M349.8,62.8H346c-1.8,0-3.7,0.1-5.5,0.2
				c-1.9,0.1-3.6,0.4-5.1,0.8c-1.5,0.4-2.8,1-3.7,1.8c-0.9,0.8-1.4,1.8-1.4,3.2c0,1.9,0.8,3.4,2.4,4.5c1.6,1.1,3.5,1.6,5.8,1.6
				c3.2,0,5.8-1.1,7.8-3.3C348.2,69.4,349.4,66.5,349.8,62.8z"/>
			<path class="st0" d="M384.3,83.1c-1.6,0-3.3-0.1-5.1-0.4s-3.5-0.7-5.1-1.3c-1.7-0.6-3.2-1.3-4.6-2.2c-1.4-0.9-2.6-2-3.6-3.1
				l6.2-6.5c2,1.8,4,3.1,6.1,3.9c2.1,0.8,4.1,1.1,6.2,1.1c0.8,0,1.6-0.1,2.5-0.3c0.9-0.2,1.7-0.5,2.4-0.9c0.7-0.4,1.3-0.9,1.8-1.6
				c0.5-0.6,0.7-1.4,0.7-2.4c0-0.8-0.2-1.5-0.7-2.1c-0.5-0.6-1.1-1.1-1.9-1.5c-0.8-0.4-1.8-0.8-2.9-1.1c-1.1-0.3-2.2-0.6-3.5-0.9
				c-1.6-0.4-3.4-0.9-5.1-1.4c-1.8-0.5-3.4-1.2-4.9-2.1c-1.5-0.8-2.8-1.9-3.8-3.3c-1-1.3-1.6-3-1.8-5.1c-0.1-0.6-0.1-1.3,0-1.8
				c0.1-1.9,0.6-3.6,1.5-5.1c0.9-1.6,2.1-2.9,3.7-4c1.5-1.1,3.3-1.9,5.4-2.6c2.1-0.6,4.3-0.9,6.6-0.9c3.2,0,6.1,0.5,8.8,1.5
				c2.7,1,5,2.5,6.8,4.4l-5.4,6.2c-1.1-1.3-2.6-2.4-4.4-3.1c-1.8-0.7-3.6-1.1-5.5-1.1c-1.9,0-3.6,0.4-5.1,1.3
				c-1.5,0.9-2.2,2-2.2,3.6c0,0.8,0.2,1.5,0.7,2.1c0.5,0.6,1.2,1.1,2,1.5c0.8,0.4,1.8,0.8,2.9,1.1c1.1,0.3,2.2,0.6,3.5,0.9
				c1.7,0.4,3.4,0.9,5.2,1.4c1.8,0.5,3.4,1.2,5,2.1c1.5,0.9,2.8,1.9,3.9,3.2c1.1,1.3,1.7,3,1.8,5c0.1,0.3,0.1,0.6,0.1,0.9
				c0,0.3,0,0.6,0,0.9c-0.1,2-0.5,3.8-1.5,5.5c-0.9,1.7-2.1,3.1-3.7,4.4c-1.6,1.2-3.4,2.2-5.6,2.9S387,83.1,384.3,83.1z"/>
			<path class="st0" d="M408.4,25.5c0-1.9,0.6-3.4,1.7-4.5c1.1-1.1,2.6-1.7,4.5-1.7c1.9,0,3.4,0.6,4.5,1.7c1.1,1.1,1.7,2.6,1.7,4.5
				c0,1.9-0.6,3.4-1.7,4.5c-1.1,1.1-2.6,1.7-4.5,1.7c-1.9,0-3.4-0.6-4.5-1.7C409,28.9,408.4,27.4,408.4,25.5z M419.8,82.3h-10.6v-44
				h10.6V82.3z"/>
			<path class="st0" d="M447.6,83.2c-3.1,0-5.9-0.5-8.5-1.5s-4.8-2.5-6.6-4.4c-1.8-1.9-3.3-4.1-4.3-6.8c-1-2.7-1.5-5.6-1.5-8.9v-2.1
				c0-3.3,0.5-6.3,1.5-9c1-2.7,2.5-5,4.3-7c1.8-1.9,4-3.4,6.6-4.5c2.6-1.1,5.4-1.6,8.5-1.6c3.1,0,5.9,0.5,8.5,1.6
				c2.6,1.1,4.8,2.6,6.6,4.5c1.8,1.9,3.3,4.3,4.3,7c1,2.7,1.5,5.7,1.5,9v3.3h-32c0.2,3.5,1.3,6.4,3.2,8.5c1.9,2.2,4.5,3.3,7.9,3.3
				c2.1,0,4-0.4,5.9-1.2c1.8-0.8,3.4-1.9,4.6-3.2l7,5.9c-0.9,1.1-2,2.1-3.3,3c-1.3,0.9-2.7,1.6-4.3,2.2c-1.5,0.6-3.1,1.1-4.8,1.4
				C451,83.1,449.3,83.2,447.6,83.2z M437,55.6h21.3c-0.6-2.8-1.8-5.1-3.5-6.9s-4.1-2.6-7.1-2.6s-5.4,0.9-7.1,2.6
				S437.6,52.8,437,55.6z"/>
			<path class="st0" d="M491.6,83.1c-1.6,0-3.3-0.1-5.1-0.4s-3.5-0.7-5.1-1.3c-1.7-0.6-3.2-1.3-4.6-2.2c-1.4-0.9-2.6-2-3.6-3.1
				l6.2-6.5c2,1.8,4,3.1,6.1,3.9c2.1,0.8,4.1,1.1,6.2,1.1c0.8,0,1.6-0.1,2.5-0.3c0.9-0.2,1.7-0.5,2.4-0.9c0.7-0.4,1.3-0.9,1.8-1.6
				c0.5-0.6,0.7-1.4,0.7-2.4c0-0.8-0.2-1.5-0.7-2.1c-0.5-0.6-1.1-1.1-1.9-1.5c-0.8-0.4-1.8-0.8-2.9-1.1c-1.1-0.3-2.2-0.6-3.5-0.9
				c-1.6-0.4-3.4-0.9-5.1-1.4c-1.8-0.5-3.4-1.2-4.9-2.1c-1.5-0.8-2.8-1.9-3.8-3.3c-1-1.3-1.6-3-1.8-5.1c-0.1-0.6-0.1-1.3,0-1.8
				c0.1-1.9,0.6-3.6,1.5-5.1c0.9-1.6,2.1-2.9,3.7-4c1.5-1.1,3.3-1.9,5.4-2.6c2.1-0.6,4.3-0.9,6.6-0.9c3.2,0,6.1,0.5,8.8,1.5
				c2.7,1,5,2.5,6.8,4.4l-5.4,6.2c-1.1-1.3-2.6-2.4-4.4-3.1c-1.8-0.7-3.6-1.1-5.5-1.1c-1.9,0-3.6,0.4-5.1,1.3
				c-1.5,0.9-2.2,2-2.2,3.6c0,0.8,0.2,1.5,0.7,2.1c0.5,0.6,1.2,1.1,2,1.5c0.8,0.4,1.8,0.8,2.9,1.1c1.1,0.3,2.2,0.6,3.5,0.9
				c1.7,0.4,3.4,0.9,5.2,1.4c1.8,0.5,3.4,1.2,5,2.1c1.5,0.9,2.8,1.9,3.9,3.2c1.1,1.3,1.7,3,1.8,5c0.1,0.3,0.1,0.6,0.1,0.9
				c0,0.3,0,0.6,0,0.9c-0.1,2-0.5,3.8-1.5,5.5c-0.9,1.7-2.1,3.1-3.7,4.4c-1.6,1.2-3.4,2.2-5.6,2.9S494.3,83.1,491.6,83.1z"/>
			<path class="st0" d="M513.5,46.6v-8.3h5.5V26h10.6v12.3h8.3v8.3h-8.3v19.5c0,2.1,0.8,3.7,2.3,4.8c1.6,1.1,3.7,1.6,6.3,1.6v9.9
				c-5.9,0-10.5-1.2-14-3.5c-3.5-2.3-5.2-6.1-5.2-11.3V46.6H513.5z"/>
			<path class="st0" d="M564.5,46.6v-8.3h5.5V26h10.6v12.3h8.3v8.3h-8.3v19.5c0,2.1,0.8,3.7,2.3,4.8c1.6,1.1,3.7,1.6,6.3,1.6v9.9
				c-5.9,0-10.5-1.2-14-3.5c-3.5-2.3-5.2-6.1-5.2-11.3V46.6H564.5z"/>
			<path class="st0" d="M635.4,59.5v1.8c0,3.3-0.5,6.3-1.5,9c-1,2.7-2.5,5-4.3,7c-1.8,1.9-4,3.4-6.6,4.5s-5.4,1.6-8.5,1.6
				c-3.1,0-5.9-0.5-8.5-1.6c-2.6-1.1-4.8-2.6-6.6-4.5c-1.8-1.9-3.3-4.3-4.3-7c-1-2.7-1.5-5.7-1.5-9v-1.8c0-3.3,0.5-6.3,1.5-9
				c1-2.7,2.5-5,4.3-7c1.8-1.9,4-3.4,6.6-4.5c2.6-1.1,5.4-1.6,8.5-1.6c3.1,0,5.9,0.5,8.5,1.6c2.6,1.1,4.8,2.6,6.6,4.5
				c1.8,1.9,3.3,4.3,4.3,7C634.9,53.2,635.4,56.2,635.4,59.5z M625.6,61.2v-1.8c0-1.9-0.2-3.6-0.7-5.3c-0.5-1.6-1.2-3.1-2.1-4.3
				c-0.9-1.2-2.1-2.1-3.5-2.8c-1.4-0.7-3-1-4.8-1s-3.4,0.3-4.8,1c-1.4,0.7-2.5,1.6-3.5,2.8c-0.9,1.2-1.6,2.6-2.1,4.3
				c-0.5,1.6-0.7,3.4-0.7,5.3v1.8c0,1.9,0.2,3.6,0.7,5.3c0.5,1.6,1.2,3.1,2.1,4.3c0.9,1.2,2.1,2.1,3.5,2.8c1.4,0.7,3,1,4.8,1
				s3.4-0.3,4.8-1c1.4-0.7,2.5-1.6,3.5-2.8c0.9-1.2,1.6-2.6,2.1-4.3C625.3,64.9,625.6,63.1,625.6,61.2z"/>
			<path class="st0" d="M384,163v-36.7h10.6V163c0,4.8,1.2,8.6,3.5,11.4c2.3,2.8,5.8,4.1,10.4,4.1s8-1.4,10.4-4.1
				c2.3-2.8,3.5-6.5,3.5-11.4v-36.7H433V163c0,4-0.5,7.6-1.5,10.8c-1,3.2-2.6,6-4.6,8.2c-2.1,2.3-4.6,4-7.7,5.2
				c-3.1,1.2-6.6,1.8-10.6,1.8s-7.6-0.6-10.6-1.8c-3.1-1.2-5.6-2.9-7.7-5.2c-2.1-2.3-3.6-5-4.6-8.2C384.5,170.6,384,167,384,163z"/>
			<path class="st0" d="M458.8,188.7c-1.6,0-3.3-0.1-5.1-0.4c-1.8-0.3-3.5-0.7-5.1-1.3c-1.7-0.6-3.2-1.3-4.6-2.2
				c-1.4-0.9-2.6-1.9-3.6-3.1l6.2-6.5c2,1.8,4,3.1,6.1,3.9c2.1,0.8,4.1,1.1,6.2,1.1c0.8,0,1.6-0.1,2.5-0.3c0.9-0.2,1.7-0.5,2.4-0.9
				c0.7-0.4,1.3-0.9,1.8-1.6c0.5-0.6,0.7-1.4,0.7-2.4c0-0.8-0.2-1.5-0.7-2.1c-0.5-0.6-1.1-1.1-1.9-1.5c-0.8-0.4-1.8-0.8-2.9-1.1
				c-1.1-0.3-2.2-0.6-3.5-0.9c-1.6-0.4-3.4-0.9-5.1-1.4c-1.8-0.5-3.4-1.2-4.9-2.1c-1.5-0.8-2.8-2-3.8-3.3c-1-1.3-1.6-3-1.8-5.1
				c-0.1-0.6-0.1-1.3,0-1.8c0.1-1.9,0.6-3.6,1.5-5.1c0.9-1.6,2.1-2.9,3.7-4c1.5-1.1,3.3-1.9,5.4-2.6c2.1-0.6,4.3-0.9,6.6-0.9
				c3.2,0,6.1,0.5,8.8,1.5c2.7,1,5,2.5,6.8,4.4L469,155c-1.1-1.3-2.6-2.4-4.4-3.1c-1.8-0.7-3.6-1.1-5.5-1.1c-1.9,0-3.6,0.4-5.1,1.3
				c-1.5,0.9-2.2,2-2.2,3.6c0,0.8,0.2,1.5,0.7,2.1c0.5,0.6,1.2,1.1,2,1.5c0.8,0.4,1.8,0.8,2.9,1.1c1.1,0.3,2.2,0.6,3.5,0.9
				c1.7,0.4,3.4,0.9,5.2,1.4c1.8,0.5,3.4,1.2,5,2.1c1.5,0.9,2.8,1.9,3.9,3.2c1.1,1.3,1.7,3,1.8,5c0.1,0.3,0.1,0.6,0.1,0.9
				c0,0.3,0,0.6,0,0.9c-0.1,2-0.5,3.8-1.5,5.5c-0.9,1.7-2.1,3.1-3.7,4.4c-1.6,1.2-3.4,2.2-5.6,2.9S461.5,188.7,458.8,188.7z"/>
			<path class="st0" d="M502.5,188.8c-3.1,0-5.9-0.5-8.5-1.5c-2.6-1-4.8-2.5-6.6-4.4c-1.8-1.9-3.3-4.1-4.3-6.8
				c-1-2.7-1.5-5.6-1.5-8.9v-2.1c0-3.3,0.5-6.3,1.5-9c1-2.7,2.5-5,4.3-7c1.8-1.9,4-3.4,6.6-4.5s5.4-1.6,8.5-1.6
				c3.1,0,5.9,0.5,8.5,1.6c2.6,1.1,4.8,2.6,6.6,4.5c1.8,1.9,3.3,4.3,4.3,7c1,2.7,1.5,5.7,1.5,9v3.3h-32c0.2,3.5,1.3,6.4,3.2,8.5
				c1.9,2.2,4.5,3.3,7.9,3.3c2.1,0,4-0.4,5.9-1.2c1.8-0.8,3.4-1.9,4.6-3.2l7,5.9c-0.9,1.1-2,2.1-3.3,3c-1.3,0.9-2.7,1.6-4.3,2.2
				c-1.5,0.6-3.1,1.1-4.8,1.4C505.8,188.7,504.1,188.8,502.5,188.8z M491.8,161.2h21.3c-0.6-2.8-1.8-5.1-3.5-6.9
				c-1.8-1.8-4.1-2.6-7.1-2.6s-5.4,0.9-7.1,2.6C493.6,156.1,492.4,158.4,491.8,161.2z"/>
		</g>
	</g>
	<line class="st1" x1="168" y1="225.4" x2="736.6" y2="225.4"/>
	<g>
		<path class="st0" d="M382.5,252.5c2.8,0,5.3,0.4,7.6,1.3c2.3,0.9,4.2,2.1,5.9,3.7c1.6,1.6,2.9,3.5,3.8,5.7
			c0.9,2.2,1.4,4.7,1.5,7.3c0.1,1.1,0,2.2-0.2,3.3c-0.3,2.2-0.9,4.2-1.9,5.9c-1,1.7-2.2,3.2-3.6,4.5c-1.4,1.3-3,2.5-4.7,3.6
			c-1.7,1.1-3.4,2.2-5.1,3.2c-1.6,1.1-3.1,2.1-4.6,3.2c-1.5,1.1-2.8,2.2-4,3.4c-1.1,1.2-2.1,2.6-2.8,4.1c-0.7,1.5-1.1,3.2-1.1,5.1
			h27.9v8.3h-37.8V308c0-3,0.4-5.6,1.3-7.8s2.1-4.2,3.6-5.9c1.5-1.8,3.3-3.4,5.4-4.9c2.1-1.5,4.2-3,6.5-4.4c1.6-1.1,3.2-2.1,4.8-3
			c1.5-0.9,2.9-2,4-3c1.2-1.1,2.1-2.3,2.8-3.6c0.7-1.3,1.1-2.8,1.1-4.4c0-2.9-0.9-5.4-2.8-7.3c-1.9-1.9-4.4-2.9-7.6-2.9
			c-3.1,0-5.6,1-7.5,2.9c-1.9,1.9-2.9,4.5-2.9,7.7h-8.4c0-2.8,0.5-5.4,1.4-7.7c0.9-2.3,2.2-4.3,3.8-5.9c1.6-1.6,3.6-2.9,5.9-3.8
			C377.1,253,379.7,252.5,382.5,252.5z"/>
		<path class="st0" d="M408.2,290.7v-12.7c0-3.8,0.5-7.3,1.6-10.4c1.1-3.1,2.5-5.8,4.4-8.1c1.9-2.2,4.1-4,6.8-5.2
			c2.7-1.2,5.6-1.8,8.8-1.8c3.3,0,6.2,0.6,8.9,1.8c2.6,1.2,4.9,3,6.8,5.2c1.9,2.2,3.4,4.9,4.4,8.1c1,3.1,1.5,6.6,1.5,10.4v12.7
			c0,3.8-0.5,7.3-1.5,10.4c-1,3.1-2.5,5.8-4.4,8.1c-1.9,2.2-4.2,4-6.8,5.2c-2.6,1.2-5.6,1.8-8.9,1.8c-3.2,0-6.2-0.6-8.8-1.8
			c-2.7-1.2-4.9-3-6.8-5.2c-1.9-2.2-3.3-4.9-4.4-8.1C408.8,298,408.2,294.5,408.2,290.7z M442.7,290.7v-12.7c0-2.5-0.3-4.8-0.9-6.9
			c-0.6-2.1-1.5-3.8-2.6-5.3c-1.1-1.5-2.5-2.6-4-3.4s-3.3-1.2-5.3-1.2c-1.9,0-3.7,0.4-5.2,1.2c-1.6,0.8-2.9,1.9-4,3.4
			c-1.1,1.5-2,3.2-2.6,5.3c-0.6,2.1-0.9,4.3-0.9,6.9v12.7c0,2.5,0.3,4.8,0.9,6.9s1.5,3.8,2.6,5.3c1.1,1.5,2.5,2.6,4,3.4
			c1.6,0.8,3.3,1.2,5.2,1.2c1.9,0,3.7-0.4,5.3-1.2s2.9-1.9,4-3.4c1.1-1.5,2-3.2,2.6-5.3S442.7,293.3,442.7,290.7z"/>
		<path class="st0" d="M477.6,252.5c2.8,0,5.3,0.4,7.6,1.3c2.3,0.9,4.2,2.1,5.9,3.7c1.6,1.6,2.9,3.5,3.8,5.7
			c0.9,2.2,1.4,4.7,1.5,7.3c0.1,1.1,0,2.2-0.2,3.3c-0.3,2.2-0.9,4.2-1.9,5.9c-1,1.7-2.2,3.2-3.6,4.5c-1.4,1.3-3,2.5-4.7,3.6
			c-1.7,1.1-3.4,2.2-5.1,3.2c-1.6,1.1-3.1,2.1-4.6,3.2c-1.5,1.1-2.8,2.2-4,3.4c-1.1,1.2-2.1,2.6-2.8,4.1c-0.7,1.5-1.1,3.2-1.1,5.1
			h27.9v8.3h-37.8V308c0-3,0.4-5.6,1.3-7.8s2.1-4.2,3.6-5.9c1.5-1.8,3.3-3.4,5.4-4.9c2.1-1.5,4.2-3,6.5-4.4c1.6-1.1,3.2-2.1,4.8-3
			c1.5-0.9,2.9-2,4-3c1.2-1.1,2.1-2.3,2.8-3.6c0.7-1.3,1.1-2.8,1.1-4.4c0-2.9-0.9-5.4-2.8-7.3c-1.9-1.9-4.4-2.9-7.6-2.9
			c-3.1,0-5.6,1-7.5,2.9c-1.9,1.9-2.9,4.5-2.9,7.7h-8.4c0-2.8,0.5-5.4,1.4-7.7c0.9-2.3,2.2-4.3,3.8-5.9c1.6-1.6,3.6-2.9,5.9-3.8
			C472.2,253,474.8,252.5,477.6,252.5z"/>
		<path class="st0" d="M522.4,252.5c2.8,0,5.3,0.4,7.6,1.3c2.3,0.9,4.2,2.1,5.9,3.7c1.6,1.6,2.9,3.5,3.8,5.7
			c0.9,2.2,1.4,4.7,1.5,7.3c0.1,1.1,0,2.2-0.2,3.3c-0.3,2.2-0.9,4.2-1.9,5.9c-1,1.7-2.2,3.2-3.6,4.5c-1.4,1.3-3,2.5-4.7,3.6
			c-1.7,1.1-3.4,2.2-5.1,3.2c-1.6,1.1-3.1,2.1-4.6,3.2c-1.5,1.1-2.8,2.2-4,3.4c-1.1,1.2-2.1,2.6-2.8,4.1c-0.7,1.5-1.1,3.2-1.1,5.1
			h27.9v8.3h-37.8V308c0-3,0.4-5.6,1.3-7.8s2.1-4.2,3.6-5.9c1.5-1.8,3.3-3.4,5.4-4.9c2.1-1.5,4.2-3,6.5-4.4c1.6-1.1,3.2-2.1,4.8-3
			c1.5-0.9,2.9-2,4-3c1.2-1.1,2.1-2.3,2.8-3.6c0.7-1.3,1.1-2.8,1.1-4.4c0-2.9-0.9-5.4-2.8-7.3c-1.9-1.9-4.4-2.9-7.6-2.9
			c-3.1,0-5.6,1-7.5,2.9c-1.9,1.9-2.9,4.5-2.9,7.7h-8.4c0-2.8,0.5-5.4,1.4-7.7c0.9-2.3,2.2-4.3,3.8-5.9c1.6-1.6,3.6-2.9,5.9-3.8
			C517.1,253,519.6,252.5,522.4,252.5z"/>
	</g>
	<g>
		<g>
			<path class="st0" d="M398.6,388.4l-5.5,15.8h-9.3l21.5-61.6h12l21.5,61.6h-9.3l-5.5-15.8H398.6z M420.9,380.1l-9.7-28.1
				l-9.7,28.1H420.9z"/>
			<path class="st0" d="M466.2,360.2h11.3l8.6,33.2l8.6-33.2h8.4l-11.4,44h-11.3l-8.6-33.2l-8.6,33.2h-11.3l-11.4-44h8.4l8.6,33.2
				L466.2,360.2z"/>
			<path class="st0" d="M545.2,373.7v30.4h-8.4v-4.8c-1.7,1.8-3.7,3.2-5.9,4.2c-2.2,1-4.7,1.5-7.5,1.5c-2.2,0-4.3-0.3-6.3-0.9
				c-2-0.6-3.7-1.5-5.1-2.6c-1.5-1.1-2.6-2.5-3.5-4.1c-0.9-1.6-1.3-3.5-1.3-5.6c0-2.3,0.5-4.3,1.4-5.9c0.9-1.6,2.2-2.9,3.7-4
				c1.5-1.1,3.2-1.9,5.1-2.5c1.9-0.6,3.8-1,5.7-1.3c1.9-0.3,3.8-0.5,5.5-0.5c1.8-0.1,3.3-0.1,4.5-0.1h3.7v-3.9c0-2-0.8-3.5-2.5-4.7
				c-1.7-1.1-3.9-1.7-6.7-1.7c-2.1,0-4,0.4-5.9,1.3c-1.8,0.9-3.4,2.1-4.8,3.6l-5.6-6c2-2,4.4-3.7,7.2-5c2.8-1.3,5.8-2,9-2
				c2.6,0,5.1,0.4,7.3,1.1s4.1,1.7,5.6,2.9c1.6,1.3,2.8,2.8,3.6,4.5C544.8,369.6,545.2,371.6,545.2,373.7z M536.6,384.3h-4.4
				c-1.8,0-3.6,0-5.5,0.1c-1.9,0.1-3.7,0.4-5.4,0.8c-1.7,0.4-3.1,1.1-4.1,2c-1.1,0.9-1.6,2.1-1.6,3.6c0,2.3,0.9,4,2.6,5.2
				c1.8,1.2,3.9,1.8,6.3,1.8c1.8,0,3.4-0.4,4.9-1.1c1.4-0.7,2.7-1.7,3.7-2.9c1-1.2,1.8-2.6,2.4-4.3C536,388,536.4,386.2,536.6,384.3
				z"/>
			<path class="st0" d="M553.5,404.2v-44h8.8v5.1c1.7-1.6,3.7-2.9,6-3.8c2.3-0.9,4.9-1.3,7.7-1.3v7.4c-1.9,0-3.7,0.3-5.4,0.9
				c-1.7,0.6-3.1,1.5-4.4,2.7c-1.2,1.2-2.2,2.6-2.9,4.3c-0.7,1.7-1.1,3.6-1.1,5.7v23.1H553.5z"/>
			<path class="st0" d="M612.4,365.3v-22.7h8.8v61.6h-8.8v-5.1c-1.7,1.9-3.7,3.3-6,4.4c-2.3,1.1-4.9,1.6-7.7,1.6
				c-2.9,0-5.5-0.5-7.9-1.6s-4.4-2.6-6.1-4.6c-1.7-2-3-4.4-4-7.2c-0.9-2.8-1.4-6-1.4-9.4c0-3.5,0.5-6.6,1.4-9.4
				c0.9-2.8,2.3-5.2,4-7.2c1.7-2,3.7-3.5,6.1-4.6c2.4-1.1,5-1.6,7.9-1.6c2.8,0,5.4,0.5,7.7,1.6C608.7,362,610.7,363.4,612.4,365.3z
				 M587.8,382.2c0,2.1,0.3,4,0.8,5.9c0.5,1.8,1.3,3.5,2.3,4.9c1,1.4,2.3,2.5,3.8,3.3c1.5,0.8,3.3,1.2,5.3,1.2c2,0,3.8-0.4,5.3-1.2
				c1.5-0.8,2.8-1.9,3.8-3.3c1-1.4,1.8-3,2.3-4.9c0.5-1.8,0.8-3.8,0.8-5.9c0-2.1-0.3-4-0.8-5.9c-0.5-1.8-1.3-3.5-2.3-4.9
				c-1-1.4-2.3-2.5-3.8-3.3c-1.5-0.8-3.3-1.2-5.3-1.2c-2,0-3.8,0.4-5.3,1.2c-1.5,0.8-2.8,1.9-3.8,3.3c-1,1.4-1.8,3-2.3,4.9
				C588.1,378.2,587.8,380.1,587.8,382.2z"/>
		</g>
		<g id="Layer_2_4_">
			<g id="Layer_1-2_4_">
				<path class="st0" d="M340.7,396.8c3.3,5.7,6.5,11.4,9.8,17c-14.4,11-36.8,12.4-53.4-0.3c-19.1-14.6-22.2-39.6-12-57.6
					c11.8-20.7,33.8-25.2,47.9-21.9c-0.4,0.8-8.9,18.4-8.9,18.4s-0.7,0-1.1,0.1c-4.2,0.2-7.3,1.2-10.7,2.9
					C305,359.3,300,366.6,299,375c-0.5,4.2,0.1,8.4,1.7,12.3c1.3,3.3,3.3,6.2,5.8,8.7c3.9,3.8,8.6,6.1,14,6.9c5.1,0.7,10,0,14.7-2.3
					c1.7-0.9,3.2-1.8,4.9-3.1C340.3,397.2,340.4,397,340.7,396.8z"/>
				<path class="st0" d="M340.7,346.7c-0.8-0.8-1.6-1.6-2.4-2.3c-0.5-0.5-0.9-0.9-1.4-1.4c-0.2-0.2-0.4-0.4-0.4-0.4s0.2-0.3,0.2-0.5
					c0.9-1.8,2.3-3.1,4-4.2c1.9-1.2,4-1.8,6.2-1.7c2.8,0.1,5.4,0.8,7.6,2.6c1.6,1.4,2.5,3.2,2.6,5.3c0.2,3.6-1.2,6.3-4.1,8.2
					c-1.7,1.1-3.6,2-5.4,3c-1,0.6-1.9,1.1-2.9,2.1c-0.9,1-0.9,2-0.9,2l13.3,0v5.9h-20.5c0,0,0-0.4,0-0.6c-0.1-2.9,0.3-5.6,1.6-8.3
					c1.2-2.4,3.1-4.2,5.4-5.6c1.8-1.1,3.6-1.9,5.4-3c1.1-0.6,1.9-1.6,1.9-3c0-1.2-0.9-2.2-2.1-2.6c-2.9-0.8-5.8,0.5-7.4,3.1
					C341.3,345.8,341,346.2,340.7,346.7z"/>
				<polygon class="st0" points="366.4,390.5 355.2,371.2 333.1,371.2 321.8,390.7 344.1,390.7 355.1,410 				"/>
			</g>
		</g>
	</g>
</g>
</svg>
